<?xml version="1.0" encoding="UTF-8"?> <svg xmlns="http://www.w3.org/2000/svg" viewBox="0 0 195 58" width="195" height="58"><defs><clipPath id="cp1"><path d="M-1365 -4837L555 -4837L555 1218L-1365 1218Z"></path></clipPath><linearGradient id="grd1" gradientUnits="userSpaceOnUse" x1="41.808" y1="51.263" x2="41.808" y2="62.509"><stop offset="0" stop-color="#1a1a1a" stop-opacity="0.1"></stop><stop offset="0.123" stop-color="#212121" stop-opacity="0.15"></stop><stop offset="0.308" stop-color="#353535" stop-opacity="0.23"></stop><stop offset="0.532" stop-color="#575757" stop-opacity="0.32"></stop><stop offset="0.783" stop-color="#858585" stop-opacity="0.42"></stop><stop offset="1" stop-color="#b3b3b3" stop-opacity="0.51"></stop></linearGradient></defs><style> tspan { white-space:pre } .shp0 { fill: #a6a6a6 } .shp1 { fill: #000000 } .shp2 { fill: #ffffff } .shp3 { fill: url(#grd1) } </style><g id="5 – 3" clip-path="url(#cp1)"><g id="Group 45"><g id="Group 44"><g id="download-on-the-app-store-apple-2"><path id="Path 99" class="shp0" d="M188.16 57.79L6.83 57.79C3.06 57.79 0 54.73 0 50.95L0 6.83C0 3.06 3.06 0 6.83 0L188.16 0C191.94 0 195 3.06 195 6.83L195 50.95C195 54.73 191.94 57.79 188.16 57.79L188.16 57.79Z"></path><path id="Path 100" class="shp1" d="M193.72 50.95C193.72 54.01 191.25 56.47 188.2 56.47L6.87 56.47C3.81 56.47 1.31 54.01 1.31 50.95L1.31 6.83C1.31 3.78 3.81 1.28 6.87 1.28L188.2 1.28C191.25 1.28 193.75 3.74 193.75 6.83L193.72 50.95L193.72 50.95Z"></path><path id="Path 101" class="shp2" d="M43.54 28.58C43.51 23.93 47.35 21.65 47.53 21.56C45.35 18.38 41.98 17.94 40.76 17.91C37.92 17.6 35.17 19.63 33.71 19.63C32.24 19.63 29.99 17.94 27.59 18C24.5 18.07 21.6 19.84 20.01 22.62C16.73 28.3 19.16 36.63 22.32 41.19C23.88 43.43 25.72 45.93 28.12 45.84C30.46 45.74 31.33 44.34 34.17 44.34C36.98 44.34 37.8 45.84 40.26 45.77C42.79 45.74 44.38 43.53 45.88 41.25C47.69 38.69 48.41 36.13 48.44 36.01C48.44 36.01 43.6 34.17 43.54 28.58ZM38.92 14.88C40.17 13.29 41.04 11.17 40.79 8.99C38.95 9.08 36.67 10.27 35.36 11.79C34.21 13.17 33.14 15.38 33.43 17.47C35.49 17.63 37.61 16.44 38.92 14.88Z"></path><path id="Path 102" class="shp3" d="M188.17 0L91.04 0L129.08 57.79L188.17 57.79C191.94 57.79 195 54.73 195 50.95L195 6.83C195 3.06 191.94 0 188.17 0Z"></path><path id="Path 103" fill-rule="evenodd" class="shp2" d="M77.56 45.52L74.28 45.52L72.47 39.88L66.23 39.88L64.51 45.52L61.33 45.52L67.51 26.3L71.35 26.3L77.56 45.52ZM71.94 37.5L70.32 32.48C70.13 31.98 69.82 30.76 69.35 28.86L69.29 28.86C69.1 29.67 68.79 30.89 68.38 32.48L66.79 37.5L71.94 37.5ZM93.44 38.41C93.44 40.78 92.79 42.62 91.51 43.99C90.35 45.21 88.95 45.84 87.23 45.84C85.39 45.84 84.08 45.18 83.27 43.87L83.27 51.14L80.21 51.14L80.21 36.19C80.21 34.73 80.18 33.2 80.08 31.64L82.8 31.64L82.99 33.82L83.05 33.82C84.08 32.17 85.64 31.33 87.73 31.33C89.35 31.33 90.73 31.98 91.82 33.26C92.91 34.6 93.44 36.32 93.44 38.41ZM90.32 38.53C90.32 37.19 90.01 36.07 89.42 35.2C88.76 34.29 87.86 33.82 86.73 33.82C85.98 33.82 85.3 34.07 84.67 34.57C84.05 35.07 83.64 35.73 83.46 36.57C83.36 36.88 83.33 37.19 83.3 37.5L83.3 39.81C83.3 40.81 83.61 41.69 84.24 42.37C84.86 43.06 85.67 43.4 86.64 43.4C87.79 43.4 88.7 42.96 89.35 42.06C90.01 41.19 90.32 40 90.32 38.53ZM109.42 38.41C109.42 40.78 108.77 42.62 107.49 43.99C106.33 45.21 104.93 45.84 103.21 45.84C101.37 45.84 100.06 45.18 99.25 43.87L99.25 51.14L96.16 51.14L96.16 36.19C96.16 34.73 96.13 33.2 96.03 31.64L98.75 31.64L98.94 33.82L99 33.82C100.03 32.17 101.59 31.33 103.68 31.33C105.3 31.33 106.68 31.98 107.77 33.26C108.86 34.6 109.42 36.32 109.42 38.41ZM106.27 38.53C106.27 37.19 105.96 36.07 105.36 35.2C104.71 34.29 103.8 33.82 102.68 33.82C101.93 33.82 101.25 34.07 100.62 34.57C100 35.07 99.59 35.73 99.4 36.57C99.31 36.94 99.25 37.25 99.25 37.5L99.25 39.81C99.25 40.81 99.56 41.69 100.18 42.37C100.81 43.06 101.62 43.4 102.59 43.4C103.74 43.4 104.65 42.96 105.3 42.06C105.96 41.19 106.27 40 106.27 38.53ZM127.24 40.13C127.24 41.75 126.68 43.09 125.53 44.12C124.28 45.24 122.53 45.8 120.28 45.8C118.22 45.8 116.57 45.4 115.29 44.62L116.01 42.06C117.35 42.87 118.85 43.25 120.47 43.25C121.63 43.25 122.53 43 123.19 42.47C123.84 41.94 124.15 41.25 124.15 40.37C124.15 39.59 123.87 38.94 123.34 38.41C122.81 37.88 121.94 37.38 120.69 36.91C117.32 35.66 115.63 33.82 115.63 31.39C115.63 29.8 116.23 28.52 117.41 27.52C118.6 26.52 120.19 26.02 122.12 26.02C123.87 26.02 125.34 26.33 126.49 26.93L125.71 29.42C124.62 28.83 123.4 28.55 122.03 28.55C120.94 28.55 120.1 28.83 119.47 29.36C118.97 29.83 118.69 30.42 118.69 31.11C118.69 31.86 118.97 32.51 119.57 32.98C120.06 33.45 121 33.92 122.37 34.48C124.03 35.13 125.25 35.91 126.03 36.82C126.87 37.69 127.24 38.78 127.24 40.13ZM137.45 33.98L134.05 33.98L134.05 40.72C134.05 42.43 134.64 43.28 135.86 43.28C136.42 43.28 136.86 43.25 137.23 43.12L137.32 45.46C136.73 45.68 135.92 45.8 134.92 45.8C133.7 45.8 132.77 45.43 132.08 44.68C131.39 43.93 131.05 42.68 131.05 40.94L131.05 33.95L129.02 33.95L129.02 31.64L131.05 31.64L131.05 29.11L134.08 28.21L134.08 31.67L137.48 31.67L137.45 33.98ZM152.74 38.47C152.74 40.59 152.12 42.34 150.9 43.71C149.62 45.12 147.94 45.84 145.81 45.84C143.78 45.84 142.16 45.15 140.94 43.81C139.73 42.47 139.13 40.75 139.13 38.69C139.13 36.54 139.76 34.79 141.01 33.42C142.25 32.04 143.94 31.36 146.03 31.36C148.06 31.36 149.71 32.04 150.93 33.39C152.15 34.7 152.74 36.41 152.74 38.47ZM149.56 38.53C149.56 37.25 149.28 36.16 148.75 35.26C148.09 34.17 147.19 33.6 145.97 33.6C144.72 33.6 143.78 34.17 143.13 35.26C142.57 36.16 142.32 37.29 142.32 38.6C142.32 39.88 142.6 40.97 143.13 41.87C143.78 42.96 144.72 43.53 145.94 43.53C147.12 43.53 148.03 42.96 148.72 41.84C149.28 40.91 149.56 39.81 149.56 38.53ZM162.76 34.35C162.45 34.29 162.1 34.26 161.79 34.26C160.7 34.26 159.86 34.66 159.3 35.48C158.8 36.19 158.52 37.1 158.52 38.22L158.52 45.49L155.43 45.49L155.43 36.01C155.43 34.54 155.39 33.1 155.33 31.64L158.02 31.64L158.14 34.29L158.23 34.29C158.55 33.39 159.08 32.64 159.76 32.11C160.42 31.64 161.2 31.36 161.98 31.36C162.26 31.36 162.51 31.39 162.76 31.42L162.76 34.35ZM176.55 37.94C176.55 38.41 176.52 38.88 176.43 39.35L167.19 39.35C167.22 40.72 167.66 41.78 168.53 42.5C169.31 43.15 170.31 43.46 171.56 43.46C172.93 43.46 174.18 43.25 175.31 42.81L175.77 44.93C174.46 45.49 172.9 45.77 171.12 45.77C168.97 45.77 167.29 45.15 166.07 43.87C164.85 42.59 164.23 40.91 164.23 38.78C164.23 36.69 164.79 34.95 165.94 33.57C167.13 32.08 168.75 31.36 170.78 31.36C172.78 31.36 174.31 32.11 175.31 33.57C176.15 34.76 176.55 36.19 176.55 37.94ZM173.62 37.13C173.65 36.23 173.43 35.41 173.03 34.76C172.5 33.89 171.69 33.48 170.56 33.48C169.56 33.48 168.72 33.89 168.1 34.73C167.6 35.38 167.29 36.19 167.19 37.13L173.62 37.13ZM65.35 19.5C64.51 19.5 63.76 19.47 63.14 19.38L63.14 10.08C64.01 9.95 64.89 9.89 65.76 9.89C69.29 9.89 70.91 11.64 70.91 14.48C70.91 17.72 68.97 19.5 65.35 19.5ZM65.85 11.08C65.38 11.08 64.98 11.11 64.64 11.17L64.64 18.22C64.82 18.25 65.17 18.25 65.67 18.25C67.98 18.25 69.29 16.94 69.29 14.48C69.29 12.29 68.1 11.08 65.85 11.08ZM75.96 19.56C73.97 19.56 72.69 18.07 72.69 16.07C72.69 13.98 74 12.48 76.09 12.48C78.06 12.48 79.37 13.88 79.37 15.98C79.37 18.07 77.99 19.56 75.96 19.56ZM76.03 13.57C74.94 13.57 74.22 14.6 74.22 16.04C74.22 17.44 74.94 18.47 76 18.47C77.06 18.47 77.78 17.38 77.78 16.01C77.81 14.6 77.09 13.57 76.03 13.57ZM90.73 12.61L88.6 19.41L87.2 19.41L86.33 16.44C86.11 15.73 85.92 14.98 85.76 14.23L85.73 14.23C85.61 14.98 85.42 15.73 85.17 16.44L84.24 19.41L82.83 19.41L80.83 12.61L82.39 12.61L83.17 15.85C83.36 16.63 83.52 17.35 83.64 18.03L83.67 18.03C83.8 17.47 83.95 16.76 84.24 15.85L85.2 12.61L86.45 12.61L87.39 15.79C87.61 16.57 87.79 17.32 87.95 18.03L87.98 18.03C88.07 17.35 88.23 16.6 88.45 15.79L89.29 12.61L90.73 12.61ZM98.56 19.41L97.06 19.41L97.06 15.51C97.06 14.29 96.59 13.7 95.69 13.7C94.78 13.7 94.16 14.48 94.16 15.35L94.16 19.41L92.63 19.41L92.63 14.54C92.63 13.95 92.63 13.29 92.57 12.61L93.91 12.61L93.97 13.67L94 13.67C94.41 12.95 95.25 12.48 96.16 12.48C97.59 12.48 98.53 13.57 98.53 15.35L98.56 19.41ZM102.74 19.41L101.21 19.41L101.21 9.45L102.74 9.45L102.74 19.41ZM108.27 19.56C106.27 19.56 104.99 18.07 104.99 16.07C104.99 13.98 106.3 12.48 108.39 12.48C110.36 12.48 111.67 13.88 111.67 15.98C111.67 18.07 110.3 19.56 108.27 19.56ZM108.33 13.57C107.24 13.57 106.52 14.6 106.52 16.04C106.52 17.44 107.24 18.47 108.3 18.47C109.36 18.47 110.08 17.38 110.08 16.01C110.08 14.6 109.39 13.57 108.33 13.57ZM117.63 19.41L117.51 18.63L117.47 18.63C117.01 19.25 116.35 19.56 115.48 19.56C114.26 19.56 113.39 18.72 113.39 17.57C113.39 15.88 114.85 15.01 117.38 15.01L117.38 14.88C117.38 13.98 116.91 13.54 115.98 13.54C115.29 13.54 114.73 13.7 114.2 14.04L113.88 13.04C114.51 12.64 115.29 12.45 116.23 12.45C118 12.45 118.91 13.39 118.91 15.26L118.91 17.75C118.91 18.44 118.94 18.97 119 19.38L117.63 19.41ZM117.41 16.01C115.73 16.01 114.88 16.41 114.88 17.38C114.88 18.1 115.32 18.44 115.91 18.44C116.69 18.44 117.41 17.85 117.41 17.07L117.41 16.01ZM126.24 19.41L126.18 18.32L126.15 18.32C125.71 19.13 125 19.56 123.97 19.56C122.31 19.56 121.09 18.13 121.09 16.1C121.09 13.98 122.34 12.48 124.09 12.48C125 12.48 125.65 12.79 126.03 13.42L126.06 13.42L126.06 9.45L127.59 9.45L127.59 17.57C127.59 18.22 127.62 18.85 127.65 19.41L126.24 19.41ZM126.03 15.41C126.03 14.45 125.4 13.63 124.43 13.63C123.31 13.63 122.62 14.63 122.62 16.04C122.62 17.41 123.34 18.35 124.4 18.35C125.37 18.35 126.03 17.5 126.03 16.54L126.03 15.41ZM137.17 19.56C135.17 19.56 133.89 18.07 133.89 16.07C133.89 13.98 135.2 12.48 137.29 12.48C139.26 12.48 140.57 13.88 140.57 15.98C140.57 18.07 139.2 19.56 137.17 19.56ZM137.23 13.57C136.14 13.57 135.45 14.6 135.45 16.04C135.45 17.44 136.17 18.47 137.23 18.47C138.29 18.47 139.01 17.38 139.01 16.01C138.98 14.6 138.29 13.57 137.23 13.57ZM147.19 19.41L147.19 15.51C147.19 14.29 146.72 13.7 145.81 13.7C144.91 13.7 144.31 14.48 144.31 15.35L144.31 19.41L142.79 19.41L142.79 14.54C142.79 13.95 142.79 13.29 142.72 12.61L144.07 12.61L144.13 13.67L144.16 13.67C144.56 12.95 145.41 12.48 146.31 12.48C147.75 12.48 148.68 13.57 148.68 15.35L148.68 19.41L147.19 19.41ZM158.89 13.73L157.24 13.73L157.24 17.04C157.24 17.88 157.52 18.28 158.11 18.28C158.39 18.28 158.61 18.25 158.8 18.22L158.83 19.38C158.55 19.5 158.14 19.53 157.64 19.53C156.46 19.53 155.74 18.88 155.74 17.16L155.74 13.73L154.74 13.73L154.74 12.61L155.74 12.61L155.74 11.36L157.24 10.92L157.24 12.61L158.89 12.61L158.89 13.73ZM166.91 19.41L165.41 19.41L165.41 15.54C165.41 14.32 164.94 13.7 164.04 13.7C163.26 13.7 162.51 14.23 162.51 15.32L162.51 19.44L161.01 19.44L161.01 9.45L162.51 9.45L162.51 13.54L162.54 13.54C163.01 12.79 163.7 12.42 164.6 12.42C166.04 12.42 166.91 13.54 166.91 15.32L166.91 19.41ZM175.12 16.38L170.56 16.38C170.59 17.66 171.44 18.41 172.72 18.41C173.4 18.41 174 18.28 174.56 18.1L174.81 19.16C174.15 19.44 173.4 19.56 172.53 19.56C170.41 19.56 169.13 18.22 169.13 16.13C169.13 14.04 170.41 12.48 172.34 12.48C174.09 12.48 175.18 13.76 175.18 15.73C175.18 15.91 175.18 16.13 175.12 16.38ZM173.75 15.29C173.75 14.23 173.22 13.48 172.25 13.48C171.37 13.48 170.69 14.23 170.59 15.29L173.75 15.29Z"></path></g></g></g></g></svg> 