<?xml version="1.0" encoding="UTF-8"?> <svg xmlns="http://www.w3.org/2000/svg" viewBox="0 0 71 117" width="71" height="117"><defs><clipPath id="cp1"><path d="M-1573 -2000L347 -2000L347 4055L-1573 4055Z"></path></clipPath></defs><style> tspan { white-space:pre } .shp0 { fill: #0f3677 } .shp1 { fill: #33baf1 } </style><g id="5 – 3" clip-path="url(#cp1)"><g id="Group 341"><g id="Group 340"><g id="001-atm"><g id="Group 281"><g id="Group 280"><path id="Rectangle 177" class="shp0" d="M22.41 62.91L24.34 62.91L24.34 64.89L22.41 64.89L22.41 62.91Z"></path></g></g><g id="Group 283"><g id="Group 282"><path id="Rectangle 178" class="shp0" d="M22.41 67.02L24.34 67.02L24.34 69L22.41 69L22.41 67.02Z"></path></g></g><g id="Group 285"><g id="Group 284"><path id="Rectangle 179" class="shp0" d="M22.41 71.12L24.34 71.12L24.34 73.11L22.41 73.11L22.41 71.12Z"></path></g></g><g id="Group 287"><g id="Group 286"><path id="Rectangle 180" class="shp0" d="M26.15 62.91L28.08 62.91L28.08 64.89L26.15 64.89L26.15 62.91Z"></path></g></g><g id="Group 289"><g id="Group 288"><path id="Rectangle 181" class="shp0" d="M26.15 67.02L28.08 67.02L28.08 69L26.15 69L26.15 67.02Z"></path></g></g><g id="Group 291"><g id="Group 290"><path id="Rectangle 182" class="shp0" d="M26.15 71.12L28.08 71.12L28.08 73.11L26.15 73.11L26.15 71.12Z"></path></g></g><g id="Group 293"><g id="Group 292"><path id="Rectangle 183" class="shp0" d="M29.88 62.91L31.82 62.91L31.82 64.89L29.88 64.89L29.88 62.91Z"></path></g></g><g id="Group 295"><g id="Group 294"><path id="Rectangle 184" class="shp0" d="M29.88 67.02L31.82 67.02L31.82 69L29.88 69L29.88 67.02Z"></path></g></g><g id="Group 297"><g id="Group 296"><path id="Rectangle 185" class="shp0" d="M29.88 71.12L31.82 71.12L31.82 73.11L29.88 73.11L29.88 71.12Z"></path></g></g><g id="Group 299"><g id="Group 298"><path id="Rectangle 186" class="shp0" d="M33.62 62.91L35.56 62.91L35.56 64.89L33.62 64.89L33.62 62.91Z"></path></g></g><g id="Group 301"><g id="Group 300"><path id="Rectangle 187" class="shp0" d="M33.62 67.02L35.56 67.02L35.56 69L33.62 69L33.62 67.02Z"></path></g></g><g id="Group 303"><g id="Group 302"><path id="Rectangle 188" class="shp0" d="M33.62 71.12L35.56 71.12L35.56 73.11L33.62 73.11L33.62 71.12Z"></path></g></g><g id="Group 305"><g id="Group 304"><path id="Rectangle 189" class="shp0" d="M53.51 34.03L56.06 34.03L56.06 36.64L53.51 36.64L53.51 34.03Z"></path></g></g><g id="Group 307"><g id="Group 306"><path id="Rectangle 190" class="shp0" d="M53.51 38.76L56.06 38.76L56.06 41.37L53.51 41.37L53.51 38.76Z"></path></g></g><g id="Group 309"><g id="Group 308"><path id="Rectangle 191" class="shp0" d="M53.51 43.48L56.06 43.48L56.06 46.09L53.51 46.09L53.51 43.48Z"></path></g></g><g id="Group 311"><g id="Group 310"><path id="Rectangle 192" class="shp0" d="M53.51 48.21L56.06 48.21L56.06 50.82L53.51 50.82L53.51 48.21Z"></path></g></g><g id="Group 313"><g id="Group 312"><path id="Rectangle 193" class="shp0" d="M14.82 34.03L17.37 34.03L17.37 36.64L14.82 36.64L14.82 34.03Z"></path></g></g><g id="Group 315"><g id="Group 314"><path id="Rectangle 194" class="shp0" d="M14.82 38.76L17.37 38.76L17.37 41.37L14.82 41.37L14.82 38.76Z"></path></g></g><g id="Group 317"><g id="Group 316"><path id="Rectangle 195" class="shp0" d="M14.82 43.48L17.37 43.48L17.37 46.09L14.82 46.09L14.82 43.48Z"></path></g></g><g id="Group 319"><g id="Group 318"><path id="Rectangle 196" class="shp0" d="M14.82 48.21L17.37 48.21L17.37 50.82L14.82 50.82L14.82 48.21Z"></path></g></g><g id="Group 321"><g id="Group 320"><path id="Path 516" class="shp0" d="M42.23 38.36L28.65 38.36C27.71 38.36 26.95 39.12 26.95 40.06C26.95 41 27.71 41.77 28.65 41.77L42.23 41.77C43.17 41.77 43.93 41 43.93 40.06C43.93 39.12 43.17 38.36 42.23 38.36Z"></path></g></g><g id="Group 323"><g id="Group 322"><path id="Path 517" class="shp0" d="M42.23 44.39L28.65 44.39C27.71 44.39 26.95 45.15 26.95 46.09C26.95 47.03 27.71 47.8 28.65 47.8L42.23 47.8C43.17 47.8 43.93 47.03 43.93 46.09C43.93 45.15 43.17 44.39 42.23 44.39Z"></path></g></g><g id="Group 325"><g id="Group 324"><path id="Path 518" class="shp0" d="M66.79 34.55C65.85 34.55 65.08 35.31 65.08 36.26L65.08 113.47L21.91 113.47C20.97 113.47 20.2 114.23 20.2 115.17C20.2 116.11 20.97 116.88 21.91 116.88L65.65 116.88C67.22 116.88 68.49 115.6 68.49 114.04L68.49 36.26C68.49 35.31 67.73 34.55 66.79 34.55Z"></path></g></g><g id="Group 327"><g id="Group 326"><path id="Path 519" fill-rule="evenodd" class="shp0" d="M70.88 3.59L70.88 10.72C70.88 12.14 69.85 13.31 68.49 13.53L68.49 23.82C68.49 24.76 67.73 25.53 66.79 25.53C65.85 25.53 65.08 24.76 65.08 23.82L65.08 13.57L5.8 13.57L5.8 113.47L10.31 113.47C11.25 113.47 12.02 114.23 12.02 115.17C12.02 116.11 11.25 116.88 10.31 116.88L5.23 116.88C3.66 116.88 2.39 115.6 2.39 114.04L2.39 13.53C1.04 13.31 0 12.14 0 10.72L0 3.59C0 2.02 1.28 0.75 2.84 0.75L68.04 0.75C69.61 0.75 70.88 2.02 70.88 3.59ZM67.47 4.16L3.41 4.16L3.41 10.16L67.47 10.16L67.47 4.16Z"></path></g></g><g id="Group 329"><g id="Group 328"><path id="Path 520" fill-rule="evenodd" class="shp1" d="M54.46 63.14C54.46 64.05 53.75 64.8 52.85 64.84L52.85 66.51C52.85 68.08 51.57 69.35 50.01 69.35L45.2 69.35C43.63 69.35 42.35 68.08 42.35 66.51L42.35 64.84C41.45 64.8 40.74 64.05 40.74 63.14C40.74 62.2 41.5 61.44 42.44 61.44L52.76 61.44C53.7 61.44 54.46 62.2 54.46 63.14ZM49.44 64.89L45.76 64.89L45.76 65.94L49.44 65.94L49.44 64.89Z"></path></g></g><g id="Group 331"><g id="Group 330"><path id="Path 521" fill-rule="evenodd" class="shp0" d="M61.29 20.85L61.29 77.87C61.29 79.44 60.02 80.72 58.45 80.72L12.43 80.72C10.86 80.72 9.59 79.44 9.59 77.87L9.59 20.85C9.59 19.28 10.86 18 12.43 18L58.45 18C60.02 18 61.29 19.28 61.29 20.85ZM13 21.42L13 55.84L18.85 55.84L18.85 29.52C18.85 28.58 19.61 27.82 20.55 27.82L50.33 27.82C51.27 27.82 52.03 28.58 52.03 29.52L52.03 55.84L57.88 55.84L57.88 21.42L13 21.42ZM22.26 31.23L22.26 55.84L48.62 55.84L48.62 31.23L22.26 31.23ZM57.88 77.31L57.88 59.25L13 59.25L13 77.31L57.88 77.31Z"></path></g></g></g></g></g></g></svg> 