<?xml version="1.0"?>
<svg xmlns="http://www.w3.org/2000/svg" xmlns:xlink="http://www.w3.org/1999/xlink" xmlns:svgjs="http://svgjs.com/svgjs" version="1.1" width="512" height="512" x="0" y="0" viewBox="0 0 128 128" style="enable-background:new 0 0 512 512" xml:space="preserve" class=""><g><path xmlns="http://www.w3.org/2000/svg" d="m38.5 72.75h51a1.75 1.75 0 0 0 1.75-1.75v-24.5a1.75 1.75 0 0 0 -1.75-1.75h-51a1.75 1.75 0 0 0 -1.75 1.75v24.5a1.75 1.75 0 0 0 1.75 1.75zm1.75-24.5h47.5v21h-47.5z" fill="#01012f" data-original="#000000" style="" class=""/><path xmlns="http://www.w3.org/2000/svg" d="m71.875 84.5h-3a1.75 1.75 0 0 0 0 3.5h3a1.75 1.75 0 0 0 0-3.5z" fill="#01012f" data-original="#000000" style="" class=""/><path xmlns="http://www.w3.org/2000/svg" d="m80.688 84.5h-3a1.75 1.75 0 1 0 0 3.5h3a1.75 1.75 0 0 0 0-3.5z" fill="#01012f" data-original="#000000" style="" class=""/><path xmlns="http://www.w3.org/2000/svg" d="m89.5 84.5h-3a1.75 1.75 0 0 0 0 3.5h3a1.75 1.75 0 0 0 0-3.5z" fill="#01012f" data-original="#000000" style="" class=""/><path xmlns="http://www.w3.org/2000/svg" d="m71.875 90h-3a1.75 1.75 0 0 0 0 3.5h3a1.75 1.75 0 0 0 0-3.5z" fill="#01012f" data-original="#000000" style="" class=""/><path xmlns="http://www.w3.org/2000/svg" d="m80.688 90h-3a1.75 1.75 0 1 0 0 3.5h3a1.75 1.75 0 0 0 0-3.5z" fill="#01012f" data-original="#000000" style="" class=""/><path xmlns="http://www.w3.org/2000/svg" d="m89.5 90h-3a1.75 1.75 0 0 0 0 3.5h3a1.75 1.75 0 0 0 0-3.5z" fill="#01012f" data-original="#000000" style="" class=""/><path xmlns="http://www.w3.org/2000/svg" d="m71.875 95.5h-3a1.75 1.75 0 0 0 0 3.5h3a1.75 1.75 0 0 0 0-3.5z" fill="#01012f" data-original="#000000" style="" class=""/><path xmlns="http://www.w3.org/2000/svg" d="m80.688 95.5h-3a1.75 1.75 0 1 0 0 3.5h3a1.75 1.75 0 0 0 0-3.5z" fill="#01012f" data-original="#000000" style="" class=""/><path xmlns="http://www.w3.org/2000/svg" d="m89.5 95.5h-3a1.75 1.75 0 0 0 0 3.5h3a1.75 1.75 0 0 0 0-3.5z" fill="#01012f" data-original="#000000" style="" class=""/><path xmlns="http://www.w3.org/2000/svg" d="m103.808 4.75h-79.616a1.75 1.75 0 0 0 -1.75 1.75v31a1.75 1.75 0 0 0 1.75 1.75h3.558v82.25a1.75 1.75 0 0 0 1.75 1.75h69a1.75 1.75 0 0 0 1.75-1.75v-82.25h3.558a1.75 1.75 0 0 0 1.75-1.75v-31a1.75 1.75 0 0 0 -1.75-1.75zm-7.058 115h-65.5v-80.5h65.5zm5.308-84h-76.116v-27.5h76.116z" fill="#01012f" data-original="#000000" style="" class=""/><path xmlns="http://www.w3.org/2000/svg" d="m44.831 25.1h6.642l1.04 2.481h2.76l-5.741-13.739h-2.781l-5.741 13.743h2.781zm3.321-7.942 2.42 5.781h-4.841z" fill="#01012f" data-original="#000000" style="" class=""/><path xmlns="http://www.w3.org/2000/svg" d="m60.512 27.585h2.48v-11.463h4.401v-2.28h-11.282v2.28h4.401z" fill="#01012f" data-original="#000000" style="" class=""/><path xmlns="http://www.w3.org/2000/svg" d="m73.211 18.402 4.521 8.382 4.541-8.382v9.183h2.481v-13.743h-2.481l-4.541 8.382-4.521-8.382h-2.501v13.743h2.501z" fill="#01012f" data-original="#000000" style="" class=""/><path xmlns="http://www.w3.org/2000/svg" d="m58.5 84.5h-20a1.75 1.75 0 0 0 0 3.5h20a1.75 1.75 0 0 0 0-3.5z" fill="#01012f" data-original="#000000" style="" class=""/></g></svg>
