<?xml version="1.0"?>
<svg xmlns="http://www.w3.org/2000/svg" xmlns:xlink="http://www.w3.org/1999/xlink" xmlns:svgjs="http://svgjs.com/svgjs" version="1.1" width="512" height="512" x="0" y="0" viewBox="0 0 448 448" style="enable-background:new 0 0 512 512" xml:space="preserve" class=""><g><path xmlns="http://www.w3.org/2000/svg" d="m208 207.289062h32v24h-32zm0 0" fill="#339bda" data-original="#000000" style="" class=""/><path xmlns="http://www.w3.org/2000/svg" d="m32 175.289062h64v16h-64zm0 0" fill="#339bda" data-original="#000000" style="" class=""/><path xmlns="http://www.w3.org/2000/svg" d="m192 175.289062h64v16h-64zm0 0" fill="#339bda" data-original="#000000" style="" class=""/><path xmlns="http://www.w3.org/2000/svg" d="m352 175.289062h64v16h-64zm0 0" fill="#339bda" data-original="#000000" style="" class=""/><path xmlns="http://www.w3.org/2000/svg" d="m368 207.289062h32v24h-32zm0 0" fill="#339bda" data-original="#000000" style="" class=""/><path xmlns="http://www.w3.org/2000/svg" d="m48 207.289062h32v168h-32zm0 0" fill="#339bda" data-original="#000000" style="" class=""/><path xmlns="http://www.w3.org/2000/svg" d="m448 335.289062h-320v88c0 13.253907 10.746094 24 24 24h272c13.253906 0 24-10.746093 24-24zm-304 32h32v16h-32zm80 48h-80v-16h80zm176 16c-5.625-.007812-11.148438-1.511718-16-4.359374-4.851562 2.847656-10.375 4.351562-16 4.359374-17.671875 0-32-14.328124-32-32 0-17.675781 14.328125-32 32-32 5.625.003907 11.148438 1.507813 16 4.359376 4.851562-2.851563 10.375-4.355469 16-4.359376 17.671875 0 32 14.324219 32 32 0 17.671876-14.328125 32-32 32zm0 0" fill="#339bda" data-original="#000000" style="" class=""/><path xmlns="http://www.w3.org/2000/svg" d="m128 295.289062h320v24h-320zm0 0" fill="#339bda" data-original="#000000" style="" class=""/><path xmlns="http://www.w3.org/2000/svg" d="m24 439.289062h91.390625c-2.230469-5.039062-3.386719-10.488281-3.390625-16v-32h-96v40c0 4.417969 3.582031 8 8 8zm0 0" fill="#339bda" data-original="#000000" style="" class=""/><path xmlns="http://www.w3.org/2000/svg" d="m448 271.289062c0-13.257812-10.746094-24-24-24h-272c-13.253906 0-24 10.742188-24 24v8h320zm0 0" fill="#339bda" data-original="#000000" style="" class=""/><path xmlns="http://www.w3.org/2000/svg" d="m400 383.289062c-3.941406.023438-7.734375 1.507813-10.648438 4.167969-3.042968 2.738281-7.660156 2.738281-10.703124 0-6.390626-5.816406-16.246094-5.511719-22.261719.695313-6.011719 6.207031-6.011719 16.066406 0 22.269531 6.015625 6.207031 15.871093 6.515625 22.261719.699219 3.042968-2.738282 7.660156-2.738282 10.703124 0 5.296876 4.820312 13.15625 5.535156 19.234376 1.742187 6.078124-3.789062 8.898437-11.15625 6.902343-18.035156-1.996093-6.882813-8.324219-11.59375-15.488281-11.539063zm0 0" fill="#339bda" data-original="#000000" style="" class=""/><path xmlns="http://www.w3.org/2000/svg" d="m248 63.289062c0 13.253907-10.746094 24-24 24s-24-10.746093-24-24c0-13.257812 10.746094-24 24-24s24 10.742188 24 24zm0 0" fill="#339bda" data-original="#000000" style="" class=""/><path xmlns="http://www.w3.org/2000/svg" d="m0 92.632812v26.65625h448v-18.824218l-224.128906-100.464844zm264-29.34375c0 22.089844-17.910156 40-40 40s-40-17.910156-40-40c0-22.09375 17.910156-40 40-40 22.082031.023438 39.972656 17.917969 40 40zm0 0" fill="#339bda" data-original="#000000" style="" class=""/><path xmlns="http://www.w3.org/2000/svg" d="m16 135.289062h416v24h-416zm0 0" fill="#339bda" data-original="#000000" style="" class=""/></g></svg>
