<?xml version="1.0"?>
<svg xmlns="http://www.w3.org/2000/svg" xmlns:xlink="http://www.w3.org/1999/xlink" xmlns:svgjs="http://svgjs.com/svgjs" version="1.1" width="512" height="512" x="0" y="0" viewBox="0 0 448 448" style="enable-background:new 0 0 512 512" xml:space="preserve" class=""><g><path xmlns="http://www.w3.org/2000/svg" d="m376 312h32v64h-32zm0 0" fill="#0f3677" data-original="#000000" style="" class=""/><path xmlns="http://www.w3.org/2000/svg" d="m272 392h48v16h-48zm0 0" fill="#0f3677" data-original="#000000" style="" class=""/><path xmlns="http://www.w3.org/2000/svg" d="m368 392h48v16h-48zm0 0" fill="#0f3677" data-original="#000000" style="" class=""/><path xmlns="http://www.w3.org/2000/svg" d="m272 280h48v16h-48zm0 0" fill="#0f3677" data-original="#000000" style="" class=""/><path xmlns="http://www.w3.org/2000/svg" d="m280 312h32v64h-32zm0 0" fill="#0f3677" data-original="#000000" style="" class=""/><path xmlns="http://www.w3.org/2000/svg" d="m96 40c-19.660156-.019531-37.886719 10.28125-48.011719 27.132812-10.125 16.851563-10.660156 37.78125-1.414062 55.132813 5.277343-8.160156 13.375-14.09375 22.746093-16.664063-8.847656-13.363281-6.449218-31.207031 5.613282-41.757812s30.070312-10.550781 42.132812 0 14.460938 28.394531 5.613282 41.757812c9.371093 2.574219 17.46875 8.507813 22.746093 16.671876 9.25-17.351563 8.71875-38.285157-1.40625-55.136719-10.125-16.855469-28.355469-27.160157-48.019531-27.136719zm0 0" fill="#0f3677" data-original="#000000" style="" class=""/><path xmlns="http://www.w3.org/2000/svg" d="m112 120h-32c-10.3125-.027344-19.46875 6.589844-22.679688 16.390625 21.589844 20.808594 55.769532 20.808594 77.359376 0-3.210938-9.800781-12.367188-16.417969-22.679688-16.390625zm0 0" fill="#0f3677" data-original="#000000" style="" class=""/><path xmlns="http://www.w3.org/2000/svg" d="m264 48h30.367188l-30.367188-34.703125zm0 0" fill="#0f3677" data-original="#000000" style="" class=""/><path xmlns="http://www.w3.org/2000/svg" d="m0 0v408h160v-24c0-4.417969 3.582031-8 8-8v-64c-4.417969 0-8-3.582031-8-8v-24h-8c-4.417969 0-8-3.582031-8-8v-16h-8c-4.417969 0-8-3.582031-8-8v-32c0-3.402344 2.148438-6.429688 5.359375-7.550781l160-56c1.710937-.597657 3.570313-.597657 5.28125 0l5.359375 1.871093v-90.320312h-48c-4.417969 0-8-3.582031-8-8v-56zm224 80h16v16h-16zm-208 104h24v16h-24zm0 96h16v16h-16zm32 48h-32v-16h32zm64 0h-48v-16h48zm0-32h-64v-16h64zm0-32h-96v-16h96zm0-32h-96v-16h96zm0-32h-56v-16h56zm-16-32c-39.765625 0-72-32.234375-72-72s32.234375-72 72-72 72 32.234375 72 72c-.042969 39.746094-32.253906 71.957031-72 72zm160-88h32v16h-32zm32 32v16h-64v-16zm0 0" fill="#0f3677" data-original="#000000" style="" class=""/><path xmlns="http://www.w3.org/2000/svg" d="m304 208c0 4.417969-3.582031 8-8 8s-8-3.582031-8-8 3.582031-8 8-8 8 3.582031 8 8zm0 0" fill="#0f3677" data-original="#000000" style="" class=""/><path xmlns="http://www.w3.org/2000/svg" d="m176 280h48v16h-48zm0 0" fill="#0f3677" data-original="#000000" style="" class=""/><path xmlns="http://www.w3.org/2000/svg" d="m112 88c0 8.835938-7.164062 16-16 16s-16-7.164062-16-16 7.164062-16 16-16 16 7.164062 16 16zm0 0" fill="#0f3677" data-original="#000000" style="" class=""/><path xmlns="http://www.w3.org/2000/svg" d="m168 448h256c4.417969 0 8-3.582031 8-8v-16h-272v16c0 4.417969 3.582031 8 8 8zm0 0" fill="#0f3677" data-original="#000000" style="" class=""/><path xmlns="http://www.w3.org/2000/svg" d="m448 240v-18.320312l-152-53.199219-152 53.199219v18.320312zm-152-8c-13.253906 0-24-10.746094-24-24s10.746094-24 24-24 24 10.746094 24 24-10.746094 24-24 24zm0 0" fill="#0f3677" data-original="#000000" style="" class=""/><path xmlns="http://www.w3.org/2000/svg" d="m184 312h32v64h-32zm0 0" fill="#0f3677" data-original="#000000" style="" class=""/><path xmlns="http://www.w3.org/2000/svg" d="m256 408v-24c0-4.417969 3.582031-8 8-8v-64c-4.417969 0-8-3.582031-8-8v-24h-16v24c0 4.417969-3.582031 8-8 8v64c4.417969 0 8 3.582031 8 8v24zm0 0" fill="#0f3677" data-original="#000000" style="" class=""/><path xmlns="http://www.w3.org/2000/svg" d="m368 280h48v16h-48zm0 0" fill="#0f3677" data-original="#000000" style="" class=""/><path xmlns="http://www.w3.org/2000/svg" d="m160 256h272v8h-272zm0 0" fill="#0f3677" data-original="#000000" style="" class=""/><path xmlns="http://www.w3.org/2000/svg" d="m176 392h48v16h-48zm0 0" fill="#0f3677" data-original="#000000" style="" class=""/></g></svg>
