<?xml version="1.0" encoding="UTF-8"?> <svg xmlns="http://www.w3.org/2000/svg" viewBox="0 0 61 60" width="61" height="60"><defs><clipPath id="cp1"><path d="M-986 -1082L934 -1082L934 4973L-986 4973Z"></path></clipPath></defs><style> tspan { white-space:pre } .shp0 { fill: #9dddf8 } .shp1 { fill: #339bda } .shp2 { fill: #33ccff } .shp3 { fill: #607d8b } .shp4 { fill: #37474f } .shp5 { fill: #cfd8dc } .shp6 { fill: #ffffff } .shp7 { fill: #000000 } </style><g id="5 – 3" clip-path="url(#cp1)"><g id="001-portfolio"><g id="Group 15"><path id="Path 61" class="shp0" d="M59.94 32.34L50.66 58.34C50.51 58.74 50.13 59 49.71 59L2 59L2 22C2 21.45 2.45 21 3 21L50 21C51.1 21 52 21.9 52 23L52 31L59 31C59.32 31 59.63 31.16 59.82 31.43C60 31.69 60.05 32.03 59.94 32.34Z"></path><g id="Group 13"><path id="Path 62" class="shp1" d="M56.94 32.34L47.66 58.34C47.51 58.74 47.13 59 46.71 59L2 59L2 22C2 21.45 2.45 21 3 21L47 21C48.1 21 49 21.9 49 23L49 31L56 31C56.32 31 56.63 31.16 56.82 31.43C57 31.69 57.05 32.03 56.94 32.34Z"></path><path id="Path 63" class="shp1" d="M52 22L52 31L12 31L12 21L51 21C51.55 21 52 21.45 52 22Z"></path><path id="Path 64" class="shp1" d="M12 21L12 31L6.82 31.86C6.35 31.94 5.88 31.67 5.72 31.22L2 21L12 21Z"></path></g><path id="Path 65" class="shp0" d="M12 31L2 59L2 21L5.72 31.22C5.88 31.67 6.35 31.94 6.82 31.86L12 31Z"></path><g id="Group 14"><path id="Ellipse 7" class="shp2" d="M24 41C22.34 41 21 39.66 21 38C21 36.34 22.34 35 24 35C25.66 35 27 36.34 27 38C27 39.66 25.66 41 24 41Z"></path><path id="Ellipse 8" class="shp2" d="M42 41C40.34 41 39 39.66 39 38C39 36.34 40.34 35 42 35C43.66 35 45 36.34 45 38C45 39.66 43.66 41 42 41Z"></path></g><path id="Path 66" class="shp3" d="M38 2L38 31L12 31L12 2C12 1.45 12.45 1 13 1L37 1C37.55 1 38 1.45 38 2Z"></path><path id="Path 67" class="shp4" d="M43 7L43 31L17 31L17 7C17 6.45 17.45 6 18 6L42 6C42.55 6 43 6.45 43 7Z"></path><path id="Path 68" class="shp3" d="M48 12L48 31L22 31L22 12C22 11.45 22.45 11 23 11L47 11C47.55 11 48 11.45 48 12Z"></path><path id="Path 69" class="shp5" d="M35 2L35 31L12 31L12 2C12 1.45 12.45 1 13 1L34 1C34.55 1 35 1.45 35 2Z"></path><path id="Path 70" class="shp3" d="M40 7L40 31L17 31L17 7C17 6.45 17.45 6 18 6L39 6C39.55 6 40 6.45 40 7Z"></path><path id="Path 71" class="shp5" d="M45 12L45 31L22 31L22 12C22 11.45 22.45 11 23 11L44 11C44.55 11 45 11.45 45 12Z"></path><path id="Ellipse 9" class="shp6" d="M35 31C30.58 31 27 27.42 27 23C27 18.58 30.58 15 35 15C39.42 15 43 18.58 43 23C43 27.42 39.42 31 35 31Z"></path><path id="Ellipse 10" class="shp5" d="M35 25C33.34 25 32 23.66 32 22C32 20.34 33.34 19 35 19C36.66 19 38 20.34 38 22C38 23.66 36.66 25 35 25Z"></path><path id="Path 72" class="shp2" d="M39 28.42L39 29.92C36.53 31.36 33.47 31.36 31 29.92L31 28.42C31.17 26.38 32.95 24.85 35 25C36.03 24.99 37.03 25.34 37.82 26.01C38.55 26.6 38.99 27.48 39 28.42Z"></path></g><g id="Group 16"><path id="Path 73" fill-rule="evenodd" class="shp7" d="M1.01 59.04C1.01 59.02 1 59.01 1 59L1 21C1 20.99 1 20.98 1 20.97C1.01 20.9 1.03 20.83 1.05 20.75C1.06 20.7 1.07 20.65 1.09 20.59C1.12 20.54 1.15 20.49 1.19 20.44C1.23 20.38 1.27 20.33 1.31 20.28C1.35 20.25 1.39 20.22 1.44 20.19C1.5 20.15 1.57 20.1 1.64 20.07C1.65 20.07 1.65 20.06 1.66 20.06C1.71 20.05 1.77 20.04 1.82 20.04C1.88 20.02 1.94 20.01 2 20L11 20L11 2C11 0.9 11.9 0 13 0L37 0C38.1 0 39 0.9 39 2L39 5L42 5C43.1 5 44 5.9 44 7L44 10L47 10C48.1 10 49 10.9 49 12L49 20L51 20C52.1 20 53 20.9 53 22L53 30L59 30C59.65 30 60.26 30.32 60.63 30.85C61.01 31.38 61.1 32.06 60.88 32.67L51.6 58.67C51.31 59.47 50.56 60 49.71 60L2 60C1.88 60 1.76 59.97 1.65 59.93C1.63 59.92 1.61 59.91 1.59 59.91C1.49 59.86 1.39 59.8 1.31 59.72C1.3 59.71 1.28 59.69 1.27 59.67C1.24 59.64 1.21 59.61 1.18 59.58C1.15 59.53 1.12 59.47 1.1 59.41C1.09 59.4 1.08 59.39 1.08 59.38C1.03 59.27 1.01 59.15 1.01 59.04ZM3 26.68L3 53.23L10.49 32.27L6.98 32.85C6.03 33.01 5.11 32.47 4.78 31.56L3 26.68ZM59 32L12.7 32L3.42 58L49.71 58L59 32ZM32 29.31C33.9 30.23 36.1 30.23 38 29.31L38 28.42C37.99 27.78 37.68 27.17 37.18 26.78C36.57 26.26 35.8 25.99 35 26C33.51 25.86 32.18 26.93 32 28.42L32 29.31ZM23 12L23 30L29.36 30C26.38 27.61 25.24 23.6 26.51 20C27.78 16.4 31.18 13.99 35 13.99C38.82 13.99 42.22 16.4 43.49 20C44.76 23.6 43.62 27.61 40.64 30L47 30L47 12L23 12ZM39.95 27.95C41.95 25.95 42.55 22.94 41.47 20.32C40.39 17.7 37.83 15.99 35 15.99C32.17 15.99 29.61 17.7 28.53 20.32C27.45 22.94 28.05 25.95 30.05 27.95C30.23 26.63 31.01 25.47 32.15 24.8C30.6 23.23 30.62 20.71 32.18 19.15C33.74 17.6 36.27 17.6 37.82 19.16C39.38 20.71 39.39 23.24 37.85 24.8C38.07 24.94 38.28 25.09 38.48 25.26C39.29 25.94 39.82 26.9 39.95 27.95ZM49 22L49 30L51 30L51 22L49 22ZM42 10L42 7L18 7L18 30L21 30L21 12C21 10.9 21.9 10 23 10L42 10ZM35 24C36.1 24 37 23.1 37 22C37 20.9 36.1 20 35 20C33.9 20 33 20.9 33 22C33 23.1 33.9 24 35 24ZM13 30L16 30L16 7C16 5.9 16.9 5 18 5L37 5L37 2L13 2L13 30ZM11 22L3.43 22L6.66 30.88L11 30.15L11 22Z"></path><path id="Path 74" fill-rule="evenodd" class="shp7" d="M45.97 37.49C46.22 39.48 44.95 41.36 43 41.86L43 44C43 45.66 41.66 47 40 47L26 47C24.34 47 23 45.66 23 44L23 41.86C21.05 41.35 19.78 39.48 20.03 37.48C20.29 35.48 21.99 33.98 24 33.98C26.01 33.98 27.71 35.48 27.97 37.48C28.22 39.48 26.95 41.35 25 41.86L25 44C25 44.55 25.45 45 26 45L40 45C40.55 45 41 44.55 41 44L41 41.86C39.05 41.36 37.78 39.48 38.03 37.49C38.29 35.49 39.99 34 42 34C44.01 34 45.71 35.49 45.97 37.49ZM23 39.72L23 39C23 38.45 23.45 38 24 38C24.55 38 25 38.45 25 39L25 39.72C25.84 39.24 26.21 38.22 25.88 37.3C25.54 36.39 24.6 35.85 23.65 36.02C22.69 36.19 22 37.03 22 38C22 38.71 22.38 39.37 23 39.72ZM43.93 37.47C43.7 36.6 42.91 35.99 42 35.99C41.09 35.99 40.3 36.6 40.07 37.47C39.83 38.35 40.22 39.27 41 39.72L41 39C41 38.45 41.45 38 42 38C42.55 38 43 38.45 43 39L43 39.72C43.78 39.27 44.17 38.35 43.93 37.47Z"></path></g></g></g></svg> 