<?xml version="1.0" encoding="UTF-8"?> <svg xmlns="http://www.w3.org/2000/svg" viewBox="0 0 67 72" width="67" height="72"><defs><clipPath id="cp1"><path d="M-548 -1081L1372 -1081L1372 4974L-548 4974Z"></path></clipPath></defs><style> tspan { white-space:pre } .shp0 { fill: #ffffff } .shp1 { fill: #33ccff } .shp2 { fill: #000000 } </style><g id="5 – 3" clip-path="url(#cp1)"><g id="001-interactive"><path id="Path 50" class="shp0" d="M49.01 38.56L49.01 47.84L45.5 54.87L45.5 70.09L30.28 70.09L30.28 54.87L29.1 53.46L29.1 25.25C29.1 24.25 29.84 23.41 30.83 23.27C31.82 23.13 32.76 23.74 33.03 24.7L34.96 31.45L38.47 32.62L40.82 33.4L43.16 34.18L45.5 34.96L46.71 35.36C48.09 35.82 49.01 37.11 49.01 38.56Z"></path><path id="Path 51" class="shp0" d="M29.1 36.13L24.42 40.81L24.42 47.84L29.1 53.46L29.1 36.13Z"></path><g id="Group 11"><path id="Path 52" class="shp1" d="M2.17 37.3L11.54 37.3L11.54 46.67L2.17 46.67L2.17 37.3Z"></path><path id="Path 53" class="shp1" d="M6.86 20.91L12.71 20.91L12.71 26.76L6.86 26.76L6.86 20.91Z"></path><path id="Path 54" class="shp1" d="M8.03 2.17L17.39 2.17L17.39 11.54L8.03 11.54L8.03 2.17Z"></path><path id="Path 55" class="shp1" d="M30.28 2.17L36.13 2.17L36.13 8.03L30.28 8.03L30.28 2.17Z"></path><path id="Path 56" class="shp1" d="M52.53 5.68L65.41 5.68L65.41 18.57L52.53 18.57L52.53 5.68Z"></path><path id="Path 57" class="shp1" d="M53.7 26.76L60.72 26.76L60.72 33.79L53.7 33.79L53.7 26.76Z"></path></g><path id="Path 58" fill-rule="evenodd" class="shp2" d="M28.89 11.77C29.73 11.62 30.59 11.54 31.45 11.54L31.45 9.2L30.28 9.2C29.63 9.2 29.1 8.67 29.1 8.03L29.1 2.17C29.1 1.52 29.63 1 30.28 1L36.13 1C36.78 1 37.3 1.52 37.3 2.17L37.3 8.03C37.3 8.67 36.78 9.2 36.13 9.2L33.79 9.2L33.79 11.73C35.2 11.97 36.56 12.42 37.84 13.07L36.77 15.16C35.12 14.31 33.3 13.88 31.45 13.88C30.73 13.88 30.02 13.95 29.32 14.07L28.89 11.77L28.89 11.77ZM31.45 6.86L34.96 6.86L34.96 3.34L31.45 3.34L31.45 6.86Z"></path><path id="Path 59" fill-rule="evenodd" class="shp2" d="M12.71 19.74C13.36 19.74 13.88 20.26 13.88 20.91L13.88 22.08L17.84 22.08C18.36 20.03 19.34 18.13 20.71 16.51L16.91 12.71L8.03 12.71C7.38 12.71 6.86 12.19 6.86 11.54L6.86 2.17C6.86 1.52 7.38 1 8.03 1L17.39 1C18.04 1 18.57 1.52 18.57 2.17L18.57 11.05L22.37 14.86C23.2 14.16 24.1 13.56 25.06 13.07L26.12 15.16C22.2 17.15 19.73 21.19 19.74 25.59C19.74 25.95 19.75 26.31 19.78 26.66L17.45 26.87C17.41 26.45 17.39 26.02 17.39 25.59C17.39 25.2 17.41 24.81 17.44 24.42L13.88 24.42L13.88 26.76C13.88 27.41 13.36 27.93 12.71 27.93L6.86 27.93C6.21 27.93 5.68 27.41 5.68 26.76L5.68 20.91C5.68 20.26 6.21 19.74 6.86 19.74L12.71 19.74ZM11.54 22.08L8.03 22.08L8.03 25.59L11.54 25.59L11.54 22.08ZM16.22 3.34L9.2 3.34L9.2 10.37L16.22 10.37L16.22 3.34Z"></path><path id="Path 60" fill-rule="evenodd" class="shp2" d="M52.53 19.74C51.88 19.74 51.35 19.21 51.35 18.57L51.35 15.99L44.47 20.3C45.15 21.98 45.5 23.78 45.5 25.59C45.5 25.68 45.5 25.76 45.49 25.85L52.53 27.6L52.53 26.76C52.53 26.12 53.05 25.59 53.7 25.59L60.72 25.59C61.37 25.59 61.89 26.12 61.89 26.76L61.89 33.79C61.89 34.44 61.37 34.96 60.72 34.96L53.7 34.96C53.05 34.96 52.53 34.44 52.53 33.79L52.53 30.02L45.25 28.2C44.93 29.91 44.29 31.54 43.37 33.02L47.08 34.25C48.93 34.87 50.19 36.6 50.18 38.56L50.18 47.84C50.18 48.02 50.14 48.2 50.06 48.37L46.67 55.14L46.67 70.09C46.67 70.74 46.15 71.26 45.5 71.26L30.28 71.26C29.63 71.26 29.1 70.74 29.1 70.09L29.1 55.29L23.52 48.59C23.35 48.38 23.25 48.12 23.25 47.84L23.25 40.81C23.25 40.5 23.37 40.21 23.59 39.99L25.33 38.25C23.11 37.18 21.21 35.54 19.83 33.5L12.71 37.95L12.71 46.67C12.71 47.32 12.19 47.84 11.54 47.84L2.17 47.84C1.52 47.84 1 47.32 1 46.67L1 37.3C1 36.66 1.52 36.13 2.17 36.13L11.2 36.13L18.68 31.46C18.56 31.21 18.45 30.96 18.35 30.7L20.53 29.85C21.71 32.87 24.09 35.27 27.11 36.47L27.93 35.65L27.93 34.28C26.05 33.52 24.46 32.16 23.42 30.42L25.42 29.21C26.04 30.23 26.9 31.08 27.93 31.68L27.93 25.25C27.93 23.67 29.1 22.33 30.67 22.11C32.23 21.89 33.72 22.86 34.16 24.38L35.92 30.53L36.31 30.66C38.62 28.45 39.14 24.95 37.58 22.16C36.02 19.37 32.77 17.98 29.68 18.79C26.58 19.6 24.42 22.39 24.42 25.59C24.42 25.93 24.44 26.26 24.49 26.6L22.17 26.93C22.11 26.49 22.08 26.04 22.08 25.59C22.08 21.48 24.77 17.84 28.7 16.63C32.64 15.43 36.9 16.93 39.2 20.34C41.51 23.75 41.32 28.27 38.74 31.47L41.08 32.25C44.54 27.25 43.59 20.43 38.9 16.56L40.39 14.75C41.58 15.73 42.59 16.9 43.4 18.2L51.35 13.23L51.35 5.68C51.35 5.04 51.88 4.51 52.53 4.51L65.41 4.51C66.05 4.51 66.58 5.04 66.58 5.68L66.58 18.57C66.58 19.21 66.05 19.74 65.41 19.74L52.53 19.74ZM10.37 38.47L3.34 38.47L3.34 45.5L10.37 45.5L10.37 38.47ZM46.34 36.47L45.5 36.19L45.5 39.64L43.16 39.64L43.16 35.41L40.82 34.63L40.82 39.64L38.47 39.64L38.47 33.85L36.13 33.07L36.13 39.64L33.79 39.64L33.79 31.61L31.91 25.02C31.79 24.63 31.4 24.37 30.99 24.43C30.58 24.49 30.28 24.84 30.28 25.25L30.28 45.5L27.93 45.5L27.93 38.96L25.59 41.3L25.59 47.42L31.18 54.12C31.35 54.33 31.45 54.59 31.45 54.87L31.45 68.92L44.33 68.92L44.33 54.87C44.33 54.69 44.37 54.51 44.45 54.34L47.84 47.56L47.84 38.56C47.84 37.61 47.24 36.77 46.34 36.47ZM54.87 32.62L59.55 32.62L59.55 27.93L54.87 27.93L54.87 32.62ZM53.7 17.39L64.24 17.39L64.24 6.86L53.7 6.86L53.7 17.39Z"></path></g></g></svg> 