<?xml version="1.0"?>
<svg xmlns="http://www.w3.org/2000/svg" xmlns:xlink="http://www.w3.org/1999/xlink" xmlns:svgjs="http://svgjs.com/svgjs" version="1.1" width="512" height="512" x="0" y="0" viewBox="0 0 512 512" style="enable-background:new 0 0 512 512" xml:space="preserve" class=""><g><path xmlns="http://www.w3.org/2000/svg" d="m347.748.374v30c74.026 0 134.252 60.226 134.252 134.252h30c0-90.568-73.684-164.252-164.252-164.252z" fill="#0f3677" data-original="#000000" style="" class=""/><path xmlns="http://www.w3.org/2000/svg" d="m347.748 61.058v30c40.566 0 73.569 33.003 73.569 73.568h30c0-57.107-46.461-103.568-103.569-103.568z" fill="#0f3677" data-original="#000000" style="" class=""/><path xmlns="http://www.w3.org/2000/svg" d="m347.748 120.043v30c8.041 0 14.583 6.542 14.583 14.583h30c0-24.583-20-44.583-44.583-44.583z" fill="#0f3677" data-original="#000000" style="" class=""/><path xmlns="http://www.w3.org/2000/svg" d="m169.866 104.59h30v-26.922h25.155v-30.06h-80.309v30.06h25.154z" fill="#0f3677" data-original="#000000" style="" class=""/><path xmlns="http://www.w3.org/2000/svg" d="m184.866 136.754c-102.099 0-184.866 83.918-184.866 187.436s82.767 187.436 184.866 187.436 184.866-83.918 184.866-187.436-82.767-187.436-184.866-187.436zm97.028 71.253 19.121 19.122-26.441 26.44-19.121-19.122zm-110.572-34.579h27.042v37.392h-27.042zm-83.517 34.614 26.44 26.44-19.121 19.121-26.44-26.44zm-53.701 129.693v-27.042h37.393v27.042zm53.735 102.638-19.121-19.122 26.441-26.44 19.121 19.122zm110.572 34.579h-27.042v-37.392h27.042zm-13.545-123.192c-15.227 0-27.57-12.344-27.57-27.57s12.344-27.57 27.57-27.57c10.315 0 19.301 5.668 24.028 14.056l51.775.017-.007 27.042-51.775-.017c-4.73 8.38-13.711 14.042-24.021 14.042zm97.061 88.579-26.44-26.44 19.121-19.121 26.44 26.44zm53.702-102.652h-37.393v-27.042h37.393z" fill="#0f3677" data-original="#000000" style="" class=""/></g></svg>
