<?xml version="1.0" encoding="UTF-8"?> <svg xmlns="http://www.w3.org/2000/svg" viewBox="0 0 109 110" width="109" height="110"><defs><clipPath id="cp1"><path d="M-721 -2013L1199 -2013L1199 4042L-721 4042Z"></path></clipPath></defs><style> tspan { white-space:pre } .shp0 { fill: #0f3677 } .shp1 { fill: #33baf1 } </style><g id="5 – 3" clip-path="url(#cp1)"><g id="Group 341"><g id="Group 338"><g id="Out line"><path id="Path 490" fill-rule="evenodd" class="shp0" d="M108.79 42.19L108.79 107.46C108.79 108.46 107.98 109.27 106.98 109.27L25.38 109.27L25.38 105.65L105.16 105.65L105.16 44L63.46 44C62.98 44 62.52 43.81 62.18 43.47L51.83 33.12L21.76 33.12L21.76 65.76L18.13 65.76L18.13 31.31C18.13 30.31 18.94 29.5 19.94 29.5L30.82 29.5L30.82 2.3C30.82 1.3 31.64 0.48 32.64 0.49L88.84 0.49C89.32 0.48 89.79 0.68 90.13 1.02L104.63 15.52C104.97 15.86 105.16 16.32 105.16 16.8L105.16 40.37L106.98 40.37C107.98 40.37 108.79 41.19 108.79 42.19ZM101.54 18.62L88.84 18.62C87.84 18.62 87.03 17.8 87.03 16.8L87.03 4.11L34.45 4.11L34.45 29.5L52.58 29.5C53.06 29.5 53.52 29.69 53.86 30.03L64.21 40.37L101.54 40.37L101.54 18.62ZM90.66 14.99L98.97 14.99L90.66 6.67L90.66 14.99Z"></path><path id="Path 491" class="shp0" d="M46.84 77.44L46.74 77.51C46.81 77.54 46.88 77.57 46.94 77.6L46.84 77.44Z"></path><path id="Path 492" fill-rule="evenodd" class="shp0" d="M70.71 88.45L70.71 91.14L67.09 91.14L67.09 88.45C67.09 85.67 65.91 83.01 63.84 81.15L61.34 84.9C60.83 85.67 59.81 85.93 58.98 85.49L56.21 88.27L56.21 91.14L52.58 91.14L52.58 88.27L49.8 85.49C48.98 85.93 47.96 85.67 47.45 84.9L44.95 81.15C42.88 83.01 41.7 85.67 41.7 88.45L41.7 91.14L38.08 91.14L38.08 88.45C38.08 83.47 40.83 78.89 45.23 76.56C43 74.84 41.7 72.19 41.7 69.38L41.7 67.51C38.41 67.03 36.04 64.09 36.28 60.77C36.52 57.45 39.28 54.88 42.61 54.88L55.49 54.88C60.89 54.88 65.27 59.26 65.27 64.66C65.28 68.78 63.47 72.68 60.33 75.35L60.51 75.39C64.33 76.34 67.53 78.92 69.29 82.43C70.22 84.3 70.71 86.36 70.71 88.45ZM55.9 83.45L54.39 82.44L52.89 83.45L54.39 84.95L55.9 83.45ZM56.21 74.82L56.21 72.7C56.21 70.27 55.38 67.91 53.84 66.03C51.07 66.87 48.22 67.38 45.33 67.53L45.33 69.38C45.33 72.39 47.77 74.82 50.77 74.82L56.21 74.82ZM53.54 62.32L53.82 62.22C54.47 62.01 55.19 62.18 55.68 62.66C57.86 64.84 59.28 67.67 59.7 70.73C60.97 68.96 61.65 66.84 61.65 64.66C61.64 61.26 58.89 58.51 55.49 58.51L42.61 58.51C41.11 58.51 39.89 59.72 39.89 61.23C39.89 62.73 41.11 63.94 42.61 63.94L43.52 63.94C46.92 63.95 50.31 63.4 53.54 62.32ZM46.74 77.51C46.81 77.54 46.88 77.57 46.94 77.6L46.84 77.44L46.74 77.51ZM49.46 81.38L52.58 79.29L52.58 78.45L50.99 78.45L49.15 78.91C48.78 79 48.41 79.12 48.05 79.26L49.46 81.38ZM60.74 79.26C60.38 79.12 60.01 79 59.63 78.91L57.8 78.45L56.21 78.45L56.21 79.29L59.33 81.38L60.74 79.26Z"></path><path id="Path 493" class="shp0" d="M46.94 77.6C46.88 77.57 46.81 77.54 46.74 77.51L46.84 77.44L46.94 77.6Z"></path><path id="Path 494" class="shp0" d="M45.33 87.52L48.95 87.52L48.95 91.14L45.33 91.14L45.33 87.52Z"></path><path id="Path 495" class="shp0" d="M59.83 87.52L63.46 87.52L63.46 91.14L59.83 91.14L59.83 87.52Z"></path><path id="Path 496" class="shp0" d="M46.94 77.6C46.88 77.57 46.81 77.54 46.74 77.51L46.84 77.44L46.94 77.6Z"></path><path id="Path 497" class="shp0" d="M74.34 58.51L81.59 58.51L81.59 62.13L74.34 62.13L74.34 58.51Z"></path><path id="Path 498" class="shp0" d="M88.84 58.51L99.72 58.51L99.72 62.13L88.84 62.13L88.84 58.51Z"></path><path id="Path 499" class="shp0" d="M74.34 65.76L81.59 65.76L81.59 69.38L74.34 69.38L74.34 65.76Z"></path><path id="Path 500" class="shp0" d="M88.84 65.76L96.1 65.76L96.1 69.38L88.84 69.38L88.84 65.76Z"></path><path id="Path 501" class="shp0" d="M74.34 73.01L85.22 73.01L85.22 76.64L74.34 76.64L74.34 73.01Z"></path><path id="Path 502" class="shp0" d="M88.84 73.01L96.1 73.01L96.1 76.64L88.84 76.64L88.84 73.01Z"></path><path id="Path 503" class="shp0" d="M74.34 80.26L85.22 80.26L85.22 83.89L74.34 83.89L74.34 80.26Z"></path><path id="Path 504" class="shp0" d="M88.84 80.26L99.72 80.26L99.72 83.89L88.84 83.89L88.84 80.26Z"></path><path id="Path 505" class="shp0" d="M74.34 87.52L81.59 87.52L81.59 91.14L74.34 91.14L74.34 87.52Z"></path><path id="Path 506" class="shp0" d="M88.84 87.52L99.72 87.52L99.72 91.14L88.84 91.14L88.84 87.52Z"></path><path id="Path 507" class="shp0" d="M90.66 2.3L90.66 6.67L88.09 4.11L87.03 4.11L87.03 2.3L90.66 2.3Z"></path><path id="Path 508" fill-rule="evenodd" class="shp1" d="M31.52 69.52C32.19 69.8 32.64 70.46 32.64 71.2L32.64 89.33C32.62 94.46 30.21 99.29 26.11 102.38L17.41 108.91C16.76 109.39 15.88 109.39 15.23 108.91L6.53 102.38C2.43 99.29 0.01 94.46 0 89.33L0 71.2C0 70.46 0.44 69.8 1.12 69.52C1.8 69.24 2.58 69.4 3.1 69.91C6.39 73.21 11.74 73.21 15.04 69.91C15.74 69.21 16.89 69.21 17.6 69.91C20.9 73.21 26.24 73.21 29.54 69.91C30.06 69.4 30.84 69.24 31.52 69.52L31.52 69.52ZM10.88 75.87L10.88 89.33C10.88 91.04 11.69 92.65 13.05 93.68L16.32 96.13L19.58 93.68C20.95 92.65 21.75 91.04 21.76 89.33L21.76 75.87C19.78 75.58 17.91 74.79 16.32 73.59C14.72 74.79 12.85 75.58 10.88 75.87ZM29.01 74.72C27.87 75.3 26.65 75.68 25.38 75.87L25.38 89.33C25.38 92.18 24.03 94.86 21.76 96.58L17.41 99.84C16.76 100.33 15.88 100.33 15.23 99.84L10.88 96.58C8.6 94.86 7.26 92.18 7.25 89.33L7.25 75.87C5.99 75.68 4.77 75.3 3.63 74.72L3.63 89.33C3.64 93.32 5.51 97.08 8.7 99.48L16.32 105.19L23.93 99.48C27.12 97.08 29 93.32 29.01 89.33L29.01 74.72Z"></path></g></g></g></g></svg> 