<?xml version="1.0" encoding="UTF-8"?> <svg xmlns="http://www.w3.org/2000/svg" viewBox="0 0 69 69" width="69" height="69"><defs><clipPath id="cp1"><path d="M-141 -1081L1779 -1081L1779 4974L-141 4974Z"></path></clipPath></defs><style> tspan { white-space:pre } .shp0 { fill: #33ccff } .shp1 { fill: #ffffff } .shp2 { fill: #57a4ff } .shp3 { fill: #2488ff } .shp4 { fill: #000000 } </style><g id="5 – 3" clip-path="url(#cp1)"><g id="Ecommerce-transfer money-buy-smartphone-hands"><path id="Rectangle 13" class="shp0" d="M10 3L38 3C39.11 3 40 3.89 40 5L40 52C40 53.11 39.11 54 38 54L10 54C8.89 54 8 53.11 8 52L8 5C8 3.89 8.89 3 10 3Z"></path><path id="Path 36" class="shp1" d="M40.67 31.6L40.67 12.33C40.67 10.46 42.19 8.93 44.07 8.93C45.94 8.93 47.47 10.46 47.47 12.33L47.47 35C47.47 33.12 48.99 31.6 50.87 31.6C52.74 31.6 54.27 33.12 54.27 35L54.27 36.13C54.27 35.23 54.63 34.37 55.26 33.73C55.62 33.37 56.05 33.1 56.53 32.94C56.9 32.8 57.28 32.73 57.67 32.73C59.54 32.73 61.07 34.26 61.07 36.13L61.07 37.27C61.07 35.39 62.59 33.87 64.47 33.87C66.34 33.87 67.87 35.39 67.87 37.27L67.87 41.75C67.87 42.53 67.73 43.31 67.47 44.04L62.2 58.8L39.53 58.8L37.91 54.27L34.26 44.04C34 43.31 33.87 42.53 33.87 41.75L33.87 31.59C33.87 29.72 35.38 28.2 37.26 28.2C38.16 28.2 39.03 28.56 39.67 29.2C40.31 29.83 40.67 30.7 40.67 31.6L40.67 31.6Z"></path><path id="Path 37" class="shp0" d="M67.87 37.27L67.87 41.75C67.87 42.53 67.73 43.31 67.47 44.04L62.2 58.8L58.8 58.8L64.07 44.04C64.33 43.31 64.47 42.53 64.47 41.75L64.47 37.27C64.47 36.36 64.11 35.5 63.47 34.86C63.26 34.66 63.02 34.47 62.77 34.32C63.28 34.02 63.87 33.87 64.47 33.87C66.34 33.87 67.87 35.39 67.87 37.27Z"></path><path id="Path 38" class="shp2" d="M56.53 58.8L62.2 58.8L62.2 67.87L56.53 67.87L56.53 58.8Z"></path><path id="Path 39" class="shp3" d="M50.87 58.8L56.53 58.8L56.53 67.87L50.87 67.87L50.87 58.8Z"></path><path id="Path 40" class="shp2" d="M45.2 58.8L50.87 58.8L50.87 67.87L45.2 67.87L45.2 58.8Z"></path><path id="Path 41" class="shp3" d="M39.53 58.8L45.2 58.8L45.2 67.87L39.53 67.87L39.53 58.8Z"></path><path id="Path 42" class="shp1" d="M34.09 54.27L29.33 61.07L4.4 61.07L2.13 37.27L2.13 32.73C2.13 30.23 4.16 28.2 6.67 28.2L14.6 28.2C17.1 28.2 19.13 30.23 19.13 32.73C19.13 35.24 17.1 37.27 14.6 37.27L8.93 37.27L8.93 52C8.94 53.25 9.95 54.26 11.2 54.27L34.09 54.27Z"></path><path id="Ellipse 6" class="shp1" d="M24.5 27C18.69 27 14 22.31 14 16.5C14 10.69 18.69 6 24.5 6C30.31 6 35 10.69 35 16.5C35 22.31 30.31 27 24.5 27Z"></path><path id="Path 43" class="shp0" d="M35 16.87C35 22.5 30.43 27.07 24.8 27.07C24.04 27.07 23.28 26.98 22.53 26.82C27.18 25.76 30.47 21.63 30.47 16.87C30.47 12.1 27.18 7.98 22.53 6.92C23.28 6.75 24.04 6.67 24.8 6.67C30.43 6.67 35 11.23 35 16.87L35 16.87Z"></path><path id="Path 44" class="shp3" d="M4.4 61.07L29.33 61.07L29.33 67.87L4.4 67.87L4.4 61.07Z"></path><path id="Path 45" class="shp0" d="M47.47 12.33L47.47 35L44.07 35L44.07 12.33C44.07 11.12 43.42 9.99 42.37 9.39C43.42 8.78 44.72 8.78 45.77 9.39C46.82 10 47.47 11.12 47.47 12.33Z"></path><path id="Path 46" class="shp4" d="M62.53 14.93L64.13 16.53L68.67 12C69.11 11.56 69.11 10.84 68.67 10.4L64.13 5.87L62.53 7.47L65.13 10.07L52 10.07L52 12.33L65.13 12.33L62.53 14.93Z"></path><path id="Path 47" class="shp4" d="M55.73 25.6L57.33 24L54.74 21.4L67.87 21.4L67.87 19.13L54.74 19.13L57.33 16.53L55.73 14.93L51.2 19.47C50.76 19.91 50.76 20.63 51.2 21.07L55.73 25.6Z"></path><path id="Path 48" fill-rule="evenodd" class="shp4" d="M69 37.27L69 41.75C69 42.66 68.84 43.56 68.54 44.42L63.33 58.99L63.33 67.87C63.33 68.49 62.83 69 62.2 69L39.53 69C38.91 69 38.4 68.49 38.4 67.87L38.4 58.99L37.12 55.4L34.68 55.4L30.47 61.43L30.47 67.87C30.47 68.49 29.96 69 29.33 69L4.4 69C3.77 69 3.27 68.49 3.27 67.87L3.27 61.12L1 37.37L1 32.73C1 29.6 3.54 27.07 6.67 27.07L7.8 27.07L7.8 4.4C7.81 2.52 9.32 1.01 11.2 1L38.4 1C40.28 1.01 41.79 2.52 41.8 4.4L41.8 8.42C42.49 8.02 43.27 7.8 44.07 7.8C46.57 7.8 48.6 9.83 48.6 12.33L48.6 31.09C49.29 30.68 50.07 30.47 50.87 30.47C52.47 30.47 53.94 31.32 54.75 32.7C55.17 32.33 55.66 32.05 56.18 31.86C56.66 31.68 57.16 31.59 57.67 31.6C59.26 31.6 60.74 32.45 61.54 33.82C63.33 32.28 66.01 32.39 67.67 34.06C68.52 34.91 69 36.06 69 37.27ZM28.2 62.2L5.53 62.2L5.53 66.73L28.2 66.73L28.2 62.2ZM31.92 55.4L11.2 55.4C9.32 55.39 7.81 53.88 7.8 52L7.8 37.27C7.8 36.64 8.31 36.13 8.93 36.13L14.6 36.13C16.48 36.13 18 34.61 18 32.73C18 30.86 16.48 29.33 14.6 29.33L6.67 29.33C4.79 29.34 3.27 30.86 3.27 32.73L3.27 37.27L5.43 59.93L28.74 59.93L31.92 55.4ZM36.3 53.13L33.2 44.43C32.89 43.57 32.74 42.67 32.73 41.75L32.73 31.59C32.74 29.09 34.76 27.07 37.26 27.07C38.06 27.07 38.85 27.29 39.53 27.7L39.53 4.4C39.53 3.77 39.03 3.27 38.4 3.27L11.2 3.27C10.57 3.27 10.07 3.77 10.07 4.4L10.07 27.07L14.6 27.07C17.73 27.07 20.27 29.6 20.27 32.73C20.27 35.86 17.73 38.4 14.6 38.4L10.07 38.4L10.07 46.33L30.47 46.33L30.47 48.6L10.07 48.6L10.07 52C10.07 52.63 10.57 53.13 11.2 53.13L36.3 53.13ZM44.07 59.93L40.67 59.93L40.67 66.73L44.07 66.73L44.07 59.93ZM49.73 59.93L46.33 59.93L46.33 66.73L49.73 66.73L49.73 59.93ZM55.4 59.93L52 59.93L52 66.73L55.4 66.73L55.4 59.93ZM61.07 59.93L57.67 59.93L57.67 66.73L61.07 66.73L61.07 59.93ZM66.73 37.27C66.72 36.02 65.71 35.01 64.47 35C63.22 35 62.2 36.02 62.2 37.27L62.2 41.8L59.93 41.8L59.93 36.13C59.93 34.88 58.92 33.87 57.67 33.87C57.42 33.87 57.17 33.91 56.94 33.99C56.61 34.09 56.31 34.28 56.07 34.54C55.64 34.96 55.4 35.53 55.4 36.13L55.4 40.67L53.13 40.67L53.13 35C53.13 33.75 52.12 32.74 50.87 32.73C49.62 32.74 48.61 33.75 48.6 35L48.6 40.67L46.33 40.67L46.33 12.33C46.33 11.08 45.32 10.07 44.07 10.07C42.82 10.08 41.81 11.09 41.8 12.33L41.8 40.67L39.53 40.67L39.53 31.6C39.54 30.35 38.52 29.33 37.27 29.33C36.02 29.32 35 30.34 35 31.59L35 41.75C35 42.41 35.11 43.05 35.33 43.67L40.33 57.67L61.41 57.67L66.4 43.66C66.62 43.05 66.73 42.4 66.73 41.75L66.73 37.27Z"></path><path id="Path 49" fill-rule="evenodd" class="shp4" d="M36.13 16.87C36.13 23.13 31.06 28.2 24.8 28.2C18.54 28.2 13.47 23.13 13.47 16.87C13.47 10.61 18.54 5.53 24.8 5.53C31.06 5.54 36.12 10.61 36.13 16.87ZM33.87 16.87C33.87 11.86 29.81 7.8 24.8 7.8C19.79 7.8 15.73 11.86 15.73 16.87C15.73 21.87 19.79 25.93 24.8 25.93C29.8 25.93 33.86 21.87 33.87 16.87Z"></path></g></g></svg> 