<?xml version="1.0" encoding="UTF-8"?> <svg xmlns="http://www.w3.org/2000/svg" viewBox="0 0 176 59" width="176" height="59"><defs><clipPath id="cp1"><path d="M-1170 -4837L750 -4837L750 1218L-1170 1218Z"></path></clipPath><clipPath id="cp2"><path d="M38.03 25.92L30.12 21.35C30.12 21.35 15.7 13.03 14.86 12.54C14.01 12.05 13.16 12.34 13.16 13.37L13.16 49.27C13.16 50.04 13.77 50.37 14.5 49.95C15.24 49.52 30.12 40.93 30.12 40.93L38.03 36.36C38.03 36.36 44.75 32.49 45.64 31.97C46.53 31.45 46.45 30.75 45.69 30.34C44.94 29.94 38.03 25.92 38.03 25.92Z"></path></clipPath><linearGradient id="grd1" gradientUnits="userSpaceOnUse" x1="41.421" y1="70.752" x2="41.421" y2="67.513"><stop offset="0" stop-color="#257cb0"></stop><stop offset="0.286" stop-color="#4a93b5"></stop><stop offset="0.767" stop-color="#78bcbb"></stop><stop offset="1" stop-color="#89cfbd"></stop></linearGradient><clipPath id="cp3"><path d="M38.03 25.92L30.12 21.35C30.12 21.35 15.7 13.03 14.86 12.54C14.01 12.05 13.16 12.34 13.16 13.37L13.16 49.27C13.16 50.04 13.77 50.37 14.5 49.95C15.24 49.52 30.12 40.93 30.12 40.93L38.03 36.36C38.03 36.36 44.75 32.49 45.64 31.97C46.53 31.45 46.45 30.75 45.69 30.34C44.94 29.94 38.03 25.92 38.03 25.92Z"></path></clipPath><linearGradient id="grd2" gradientUnits="userSpaceOnUse" x1="40.604" y1="69.948" x2="42.677" y2="69.948"><stop offset="0" stop-color="#52c1ad"></stop><stop offset="1" stop-color="#dee89a"></stop></linearGradient><clipPath id="cp4"><path d="M38.03 25.92L30.12 21.35C30.12 21.35 15.7 13.03 14.86 12.54C14.01 12.05 13.16 12.34 13.16 13.37L13.16 49.27C13.16 50.04 13.77 50.37 14.5 49.95C15.24 49.52 30.12 40.93 30.12 40.93L38.03 36.36C38.03 36.36 44.75 32.49 45.64 31.97C46.53 31.45 46.45 30.75 45.69 30.34C44.94 29.94 38.03 25.92 38.03 25.92Z"></path></clipPath><linearGradient id="grd3" gradientUnits="userSpaceOnUse" x1="41.64" y1="69.133" x2="41.64" y2="67.501"><stop offset="0" stop-color="#ec413d"></stop><stop offset="0.167" stop-color="#da4452"></stop><stop offset="0.575" stop-color="#b0487a"></stop><stop offset="0.862" stop-color="#954a92"></stop><stop offset="1" stop-color="#8a4a9d"></stop></linearGradient><clipPath id="cp5"><path d="M38.03 25.92L30.12 21.35C30.12 21.35 15.7 13.03 14.86 12.54C14.01 12.05 13.16 12.34 13.16 13.37L13.16 49.27C13.16 50.04 13.77 50.37 14.5 49.95C15.24 49.52 30.12 40.93 30.12 40.93L38.03 36.36C38.03 36.36 44.75 32.49 45.64 31.97C46.53 31.45 46.45 30.75 45.69 30.34C44.94 29.94 38.03 25.92 38.03 25.92Z"></path></clipPath><linearGradient id="grd4" gradientUnits="userSpaceOnUse" x1="42.834" y1="69.567" x2="42.834" y2="68.697"><stop offset="0" stop-color="#f58879"></stop><stop offset="0.119" stop-color="#f69079"></stop><stop offset="0.713" stop-color="#fcb877"></stop><stop offset="1" stop-color="#fec874"></stop></linearGradient></defs><style> tspan { white-space:pre } .shp0 { fill: #000000 } .shp1 { fill: url(#grd1) } .shp2 { fill: url(#grd2) } .shp3 { fill: url(#grd3) } .shp4 { fill: url(#grd4) } .shp5 { fill: #f9f9f9 } .shp6 { fill: #f9f9fa } </style><g id="5 – 3" clip-path="url(#cp1)"><g id="Group 45"><g id="Group 44"><g id="google-play-download-android-app"><path id="Path 87" class="shp0" d="M175.5 50.3C175.5 54.58 172.03 58.06 167.74 58.06L7.76 58.06C3.47 58.06 0 54.58 0 50.3L0 8.41C0 4.12 3.47 0.65 7.76 0.65L167.74 0.65C172.03 0.65 175.5 4.12 175.5 8.41L175.5 50.3L175.5 50.3L175.5 50.3Z"></path><g id="Group 40" clip-path="url(#cp2)"><path id="Path 88" class="shp1" d="M13.16 11.7L13.16 50.58L32.77 31.14L13.16 11.7Z"></path></g><g id="Group 41" clip-path="url(#cp3)"><path id="Path 90" class="shp2" d="M38.03 25.92L30.12 21.35L13.16 11.56L13.16 11.7L32.77 31.14L38.03 25.92Z"></path></g><g id="Group 42" clip-path="url(#cp4)"><path id="Path 92" class="shp3" d="M13.16 50.58L13.16 50.72L30.12 40.93L38.03 36.36L32.77 31.14L13.16 50.58Z"></path></g><g id="Group 43" clip-path="url(#cp5)"><path id="Path 94" class="shp4" d="M38.03 25.92L32.77 31.14L38.03 36.36L47.08 31.14L38.03 25.92Z"></path></g><path id="Path 96" fill-rule="evenodd" class="shp5" d="M136.58 38.74C135.85 38.74 135.17 38.6 134.57 38.33C133.96 38.06 133.45 37.64 133.03 37.08L132.91 37.08C132.99 37.74 133.03 38.37 133.03 38.96L133.03 43.61L131.32 43.61L131.32 27.23L132.71 27.23L132.95 28.77L133.03 28.77C133.47 28.16 133.99 27.71 134.57 27.43C135.16 27.16 135.83 27.02 136.58 27.02C138.08 27.02 139.24 27.53 140.05 28.56C140.87 29.58 141.28 31.02 141.28 32.87C141.28 34.73 140.86 36.17 140.03 37.2C139.2 38.23 138.05 38.74 136.58 38.74ZM136.33 28.48C135.18 28.48 134.34 28.8 133.83 29.44C133.31 30.07 133.05 31.09 133.03 32.49L133.03 32.87C133.03 34.46 133.3 35.6 133.83 36.28C134.36 36.97 135.21 37.31 136.38 37.31C137.35 37.31 138.12 36.91 138.67 36.12C139.23 35.33 139.5 34.24 139.5 32.85C139.5 31.44 139.23 30.36 138.67 29.61C138.12 28.85 137.34 28.48 136.33 28.48ZM145.24 38.53L143.53 38.53L143.53 22.48L145.24 22.48L145.24 38.53ZM155.09 38.53L154.75 36.92L154.66 36.92C154.1 37.63 153.54 38.11 152.98 38.36C152.42 38.61 151.72 38.74 150.88 38.74C149.76 38.74 148.88 38.45 148.24 37.87C147.61 37.3 147.29 36.47 147.29 35.41C147.29 33.13 149.11 31.93 152.77 31.82L154.68 31.76L154.68 31.05C154.68 30.17 154.49 29.51 154.11 29.09C153.73 28.67 153.12 28.45 152.28 28.45C151.34 28.45 150.27 28.74 149.08 29.32L148.56 28.01C149.11 27.71 149.72 27.47 150.39 27.3C151.05 27.13 151.72 27.04 152.38 27.04C153.73 27.04 154.73 27.34 155.38 27.94C156.03 28.54 156.36 29.5 156.36 30.82L156.36 38.53L155.09 38.53L155.09 38.53ZM151.22 37.33C152.28 37.33 153.12 37.03 153.73 36.45C154.34 35.87 154.64 35.05 154.64 33.99L154.64 32.97L152.93 33.05C151.57 33.09 150.59 33.31 149.98 33.68C149.38 34.06 149.08 34.64 149.08 35.43C149.08 36.05 149.27 36.52 149.64 36.84C150.02 37.17 150.54 37.33 151.22 37.33ZM157.35 27.23L159.18 27.23L161.66 33.68C162.2 35.15 162.54 36.21 162.67 36.86L162.75 36.86C162.84 36.51 163.03 35.91 163.32 35.06C163.6 34.21 164.54 31.6 166.12 27.23L167.95 27.23L163.1 40.1C162.61 41.37 162.05 42.28 161.41 42.81C160.77 43.34 159.98 43.61 159.04 43.61C158.52 43.61 158 43.55 157.49 43.43L157.49 42.06C157.87 42.14 158.29 42.19 158.76 42.19C159.94 42.19 160.78 41.53 161.28 40.21L161.91 38.6L157.35 27.23ZM104.86 28.28L104.86 28.28C104.86 28.28 104.86 28.28 104.86 28.28L104.86 28.28ZM106.54 31.47C106.54 33.22 105.55 34.05 104.55 34.83C104.25 35.14 103.89 35.47 103.89 35.99C103.89 36.51 104.25 36.79 104.51 37.01L105.36 37.67C106.4 38.54 107.34 39.35 107.34 40.98C107.34 43.2 105.19 45.45 101.12 45.45C97.69 45.45 96.04 43.82 96.04 42.06C96.04 41.21 96.46 40.01 97.86 39.18C99.33 38.28 101.31 38.16 102.38 38.09C102.05 37.67 101.67 37.22 101.67 36.48C101.67 36.08 101.79 35.85 101.9 35.56C101.64 35.59 101.38 35.61 101.15 35.61C98.64 35.61 97.22 33.74 97.22 31.9C97.22 30.81 97.72 29.6 98.74 28.73C100.08 27.62 101.69 27.43 102.97 27.43L107.84 27.43L106.33 28.28L104.86 28.28C105.41 28.73 106.54 29.67 106.54 31.47ZM103.18 38.78C102.99 38.75 102.87 38.75 102.64 38.75C102.43 38.75 101.15 38.8 100.15 39.13C99.63 39.32 98.12 39.89 98.12 41.57C98.12 43.25 99.75 44.46 102.28 44.46C104.55 44.46 105.76 43.36 105.76 41.9C105.76 40.69 104.98 40.06 103.18 38.78ZM103.87 34.28C104.41 33.74 104.46 32.98 104.46 32.56C104.46 30.86 103.44 28.21 101.48 28.21C100.86 28.21 100.2 28.51 99.82 28.99C99.42 29.48 99.3 30.12 99.3 30.74C99.3 32.32 100.22 34.95 102.26 34.95C102.85 34.95 103.49 34.66 103.87 34.28ZM89.97 38.4C86.22 38.4 84.21 35.47 84.21 32.83C84.21 29.73 86.74 27.09 90.33 27.09C93.8 27.09 95.97 29.81 95.97 32.66C95.97 35.45 93.82 38.4 89.97 38.4ZM92.92 36.49C93.49 35.73 93.63 34.79 93.63 33.87C93.63 31.79 92.64 27.82 89.71 27.82C88.94 27.82 88.16 28.13 87.59 28.63C86.67 29.45 86.5 30.49 86.5 31.51C86.5 33.84 87.66 37.69 90.52 37.69C91.44 37.69 92.38 37.24 92.92 36.49ZM77.18 38.4C73.42 38.4 71.42 35.47 71.42 32.83C71.42 29.73 73.94 27.09 77.53 27.09C81 27.09 83.17 29.81 83.17 32.66C83.17 35.45 81.03 38.4 77.18 38.4ZM80.13 36.49C80.69 35.73 80.84 34.79 80.84 33.87C80.84 31.79 79.84 27.82 76.92 27.82C76.14 27.82 75.36 28.13 74.79 28.63C73.87 29.45 73.71 30.49 73.71 31.51C73.71 33.84 74.86 37.69 77.72 37.69C78.64 37.69 79.59 37.24 80.13 36.49ZM69.61 38.03L69.61 38.03L69.61 38.03L69.61 38.03L69.61 38.03ZM66.22 38.81C64.84 39.03 63.61 39.22 62.3 39.22C55.75 39.22 53.26 34.4 53.26 30.62C53.26 26.02 56.79 21.75 62.85 21.75C64.13 21.75 65.36 21.94 66.48 22.24C68.26 22.74 69.09 23.36 69.61 23.72L67.64 25.59L66.81 25.78L67.4 24.83C66.6 24.05 65.12 22.6 62.32 22.6C58.57 22.6 55.75 25.45 55.75 29.6C55.75 34.07 58.98 38.27 64.15 38.27C65.67 38.27 66.45 37.96 67.17 37.67L67.17 33.85L63.58 34.04L65.48 33.02L70.51 33.02L69.9 33.61C69.73 33.76 69.71 33.8 69.66 33.99C69.63 34.21 69.61 34.9 69.61 35.13L69.61 38.03L66.22 38.81Z"></path><path id="Path 97" fill-rule="evenodd" class="shp5" d="M113.57 37.47L112.7 37.99L108.49 37.99C109.04 37.28 109.13 37.2 109.13 36.73L109.13 22.07L109.14 22.08L109.14 22.07L107.32 22.07L109.1 21.22L112.5 21.22C111.76 21.65 111.52 21.79 111.43 22.62C111.42 22.67 111.42 22.72 111.42 22.77L111.42 36.21C111.42 37.13 111.58 37.28 112.36 37.35C112.77 37.39 113.17 37.42 113.57 37.47ZM122.02 37.56C121.76 37.71 121.5 37.87 121.25 37.99C120.47 38.34 119.67 38.44 118.96 38.44C118.2 38.44 117.02 38.39 115.82 37.52C114.15 36.34 113.42 34.31 113.42 32.54C113.42 28.89 116.39 27.1 118.82 27.1C119.67 27.1 120.54 27.31 121.25 27.76C122.42 28.54 122.73 29.55 122.89 30.09L117.36 32.33L115.54 32.47C116.13 35.47 118.16 37.21 120.4 37.21C121.6 37.21 122.47 36.79 123.27 36.39L122.02 37.56ZM119.81 30.54C120.25 30.37 120.49 30.23 120.49 29.9C120.49 28.96 119.43 27.88 118.16 27.88C117.21 27.88 115.44 28.61 115.44 31.15C115.44 31.55 115.49 31.98 115.52 32.4L119.81 30.54ZM124.3 27.26L124.3 28.82L124.11 28.82L124.11 27.26L123.59 27.26L123.59 27.1L124.81 27.1L124.81 27.26L124.3 27.26ZM126.42 28.82L126.42 27.25L126.41 27.25L125.93 28.82L125.78 28.82L125.3 27.25L125.29 27.25L125.29 28.82L125.12 28.82L125.12 27.1L125.42 27.1L125.85 28.49L125.86 28.49L126.29 27.1L126.59 27.1L126.59 28.82L126.42 28.82Z"></path><path id="Path 98" fill-rule="evenodd" class="shp6" d="M57.97 17.12L56.79 17.12C56.79 16.96 56.68 16.5 56.46 15.75L54.75 15.75C54.52 16.49 54.41 16.95 54.41 17.12L53.3 17.12C53.3 17.03 53.58 16.24 54.16 14.77C54.73 13.29 55.02 12.48 55.02 12.33L56.41 12.33C56.41 12.47 56.67 13.27 57.19 14.73C57.71 16.19 57.97 16.99 57.97 17.12ZM56.27 15.04C55.85 13.77 55.64 13.09 55.64 12.99L55.58 12.99C55.58 13.08 55.36 13.77 54.93 15.04L56.27 15.04ZM62.72 17.12L61.81 17.12C61.81 17.02 61.48 16.49 60.8 15.53C60.09 14.51 59.69 13.82 59.59 13.45L59.53 13.45C59.59 13.98 59.63 14.47 59.63 14.91C59.63 15.51 59.64 16.25 59.68 17.12L58.77 17.12C58.81 16.36 58.83 15.53 58.83 14.62C58.83 13.72 58.81 12.96 58.77 12.33L59.86 12.33C59.86 12.46 60.17 12.98 60.77 13.89C61.42 14.85 61.79 15.51 61.89 15.85L61.94 15.85C61.88 15.3 61.85 14.81 61.85 14.38C61.85 13.71 61.84 13.03 61.8 12.33L62.72 12.33C62.69 12.94 62.67 13.7 62.67 14.62C62.67 15.54 62.69 16.37 62.72 17.12ZM68.07 14.56C68.07 15.26 67.84 15.87 67.4 16.39C66.95 16.91 66.32 17.17 65.52 17.17C65.15 17.17 64.65 17.15 64.01 17.12C64.04 16.38 64.06 15.55 64.06 14.61C64.06 13.72 64.04 12.96 64.01 12.33L64.66 12.33C64.76 12.33 64.92 12.32 65.13 12.31C65.34 12.31 65.47 12.3 65.54 12.3C66.43 12.3 67.07 12.52 67.47 12.97C67.87 13.41 68.07 13.94 68.07 14.56ZM67.06 14.72C67.06 14.25 66.92 13.85 66.65 13.52C66.37 13.2 65.95 13.04 65.39 13.04C65.28 13.04 65.14 13.05 64.95 13.07C64.98 13.57 64.99 14.08 64.99 14.61C64.99 15.2 65 15.78 65.03 16.36C65.18 16.39 65.34 16.41 65.5 16.41C66.03 16.41 66.42 16.25 66.68 15.92C66.93 15.59 67.06 15.19 67.06 14.72ZM72.99 17.12L71.9 17.12C71.62 16.25 71.4 15.72 71.25 15.51C71.09 15.31 70.85 15.21 70.51 15.21C70.37 15.21 70.23 15.21 70.1 15.21C70.1 15.84 70.11 16.48 70.13 17.12L69.11 17.12C69.14 16.38 69.16 15.55 69.16 14.61C69.16 13.72 69.14 12.96 69.11 12.33L69.75 12.33C69.82 12.33 69.97 12.32 70.21 12.31C70.44 12.31 70.66 12.3 70.86 12.3C71.99 12.3 72.55 12.69 72.55 13.46C72.55 14.07 72.23 14.5 71.59 14.74L71.59 14.8C71.83 14.86 72.05 15.06 72.24 15.38C72.42 15.69 72.68 16.28 72.99 17.12ZM71.61 13.73C71.61 13.24 71.3 13 70.67 13C70.44 13 70.23 13.02 70.06 13.05C70.08 13.43 70.1 13.93 70.1 14.54C70.23 14.55 70.35 14.55 70.44 14.55C71.22 14.55 71.61 14.28 71.61 13.73ZM78.28 14.64C78.28 15.39 78.05 16.02 77.58 16.51C77.12 17.01 76.55 17.26 75.87 17.26C75.22 17.26 74.68 17.03 74.24 16.57C73.8 16.12 73.58 15.54 73.58 14.84C73.58 14.08 73.81 13.46 74.28 12.96C74.74 12.46 75.31 12.22 75.99 12.22C76.64 12.22 77.18 12.44 77.62 12.9C78.06 13.35 78.28 13.93 78.28 14.64ZM77.26 14.74C77.26 14.23 77.13 13.81 76.87 13.49C76.6 13.17 76.28 13.01 75.89 13.01C75.53 13.01 75.23 13.18 74.98 13.5C74.73 13.82 74.6 14.23 74.6 14.72C74.6 15.23 74.73 15.64 75 15.97C75.26 16.29 75.59 16.45 75.97 16.45C76.33 16.45 76.63 16.28 76.88 15.96C77.13 15.64 77.26 15.23 77.26 14.74ZM80.36 17.12L79.32 17.12C79.35 16.36 79.37 15.53 79.37 14.61C79.37 13.72 79.35 12.95 79.32 12.33L80.36 12.33C80.33 12.95 80.31 13.71 80.31 14.61C80.31 15.54 80.33 16.38 80.36 17.12ZM85.7 14.56C85.7 15.26 85.48 15.87 85.03 16.39C84.58 16.91 83.96 17.17 83.15 17.17C82.79 17.17 82.29 17.15 81.65 17.12C81.68 16.38 81.7 15.55 81.7 14.61C81.7 13.72 81.68 12.96 81.65 12.33L82.29 12.33C82.4 12.33 82.56 12.32 82.77 12.31C82.97 12.31 83.11 12.3 83.17 12.3C84.06 12.3 84.7 12.52 85.1 12.97C85.5 13.41 85.7 13.94 85.7 14.56ZM84.7 14.72C84.7 14.25 84.56 13.85 84.28 13.52C84.01 13.2 83.59 13.04 83.02 13.04C82.92 13.04 82.77 13.05 82.59 13.07C82.61 13.57 82.63 14.08 82.63 14.61C82.63 15.2 82.64 15.78 82.66 16.36C82.82 16.39 82.98 16.41 83.14 16.41C83.67 16.41 84.06 16.25 84.31 15.92C84.57 15.59 84.7 15.19 84.7 14.72ZM92.79 17.12L91.61 17.12C91.61 16.96 91.5 16.5 91.27 15.75L89.57 15.75C89.34 16.49 89.23 16.95 89.23 17.12L88.12 17.12C88.12 17.03 88.4 16.24 88.98 14.77C89.55 13.29 89.84 12.48 89.84 12.33L91.23 12.33C91.23 12.47 91.49 13.27 92.01 14.73C92.53 16.19 92.79 16.99 92.79 17.12ZM91.09 15.04C90.67 13.77 90.46 13.09 90.46 12.99L90.4 12.99C90.4 13.08 90.18 13.77 89.75 15.04L91.09 15.04ZM96.44 14.88C96 15.16 95.46 15.3 94.83 15.3C94.71 15.3 94.63 15.3 94.58 15.3C94.58 15.76 94.6 16.37 94.62 17.12L93.59 17.12C93.62 16.41 93.64 15.58 93.64 14.61C93.64 13.73 93.62 12.97 93.59 12.33L94.23 12.33C94.32 12.33 94.49 12.32 94.75 12.31C95.01 12.31 95.23 12.3 95.42 12.3C95.89 12.3 96.28 12.41 96.61 12.62C96.93 12.83 97.09 13.15 97.09 13.58C97.09 14.17 96.87 14.6 96.44 14.88ZM96.14 13.79C96.14 13.26 95.79 13 95.09 13C94.92 13 94.73 13.01 94.54 13.05C94.57 13.52 94.58 14.04 94.58 14.63C94.64 14.63 94.71 14.64 94.79 14.64C95.69 14.64 96.14 14.35 96.14 13.79ZM100.86 14.88C100.42 15.16 99.89 15.3 99.25 15.3C99.14 15.3 99.05 15.3 99 15.3C99 15.76 99.02 16.37 99.04 17.12L98.01 17.12C98.04 16.41 98.06 15.58 98.06 14.61C98.06 13.73 98.04 12.97 98.01 12.33L98.65 12.33C98.74 12.33 98.92 12.32 99.17 12.31C99.43 12.31 99.65 12.3 99.84 12.3C100.31 12.3 100.71 12.41 101.03 12.62C101.35 12.83 101.51 13.15 101.51 13.58C101.51 14.17 101.29 14.6 100.86 14.88ZM100.56 13.79C100.56 13.26 100.21 13 99.51 13C99.34 13 99.15 13.01 98.96 13.05C98.99 13.52 99 14.04 99 14.63C99.06 14.63 99.13 14.64 99.21 14.64C100.11 14.64 100.56 14.35 100.56 13.79ZM108.74 14.64C108.74 15.39 108.51 16.02 108.05 16.51C107.58 17.01 107.01 17.26 106.33 17.26C105.68 17.26 105.14 17.03 104.7 16.57C104.26 16.12 104.05 15.54 104.05 14.84C104.05 14.08 104.28 13.46 104.74 12.96C105.2 12.46 105.77 12.22 106.45 12.22C107.1 12.22 107.65 12.44 108.08 12.9C108.52 13.35 108.74 13.93 108.74 14.64ZM107.72 14.74C107.72 14.23 107.59 13.81 107.33 13.49C107.06 13.17 106.74 13.01 106.35 13.01C105.99 13.01 105.69 13.18 105.44 13.5C105.19 13.82 105.06 14.23 105.06 14.72C105.06 15.23 105.2 15.64 105.46 15.97C105.72 16.29 106.05 16.45 106.43 16.45C106.79 16.45 107.09 16.28 107.35 15.96C107.6 15.64 107.72 15.23 107.72 14.74ZM113.73 17.12L112.82 17.12C112.82 17.02 112.49 16.49 111.81 15.53C111.1 14.51 110.7 13.82 110.6 13.45L110.54 13.45C110.6 13.98 110.63 14.47 110.63 14.91C110.63 15.51 110.65 16.25 110.69 17.12L109.78 17.12C109.82 16.36 109.83 15.53 109.83 14.62C109.83 13.72 109.82 12.96 109.78 12.33L110.87 12.33C110.87 12.46 111.18 12.98 111.78 13.89C112.43 14.85 112.8 15.51 112.9 15.85L112.95 15.85C112.89 15.3 112.86 14.81 112.86 14.38C112.86 13.71 112.85 13.03 112.81 12.33L113.73 12.33C113.7 12.94 113.68 13.7 113.68 14.62C113.68 15.54 113.7 16.37 113.73 17.12Z"></path></g></g></g></g></svg> 