<?xml version="1.0" encoding="UTF-8"?> <svg xmlns="http://www.w3.org/2000/svg" viewBox="0 0 120 121" width="120" height="121"><defs><clipPath id="cp1"><path d="M-304 -2002L1616 -2002L1616 4053L-304 4053Z"></path></clipPath></defs><style> tspan { white-space:pre } .shp0 { fill: #0f3677 } .shp1 { fill: #33baf1 } </style><g id="5 – 3" clip-path="url(#cp1)"><g id="Group 341"><g id="Group 337"><g id="001-customer-service"><g id="Group 252"><g id="Group 251"><path id="Path 486" fill-rule="evenodd" class="shp0" d="M55.71 104.71L58.65 107.64L49.22 116.28C46.73 118.78 43.33 120.19 39.71 120.19C36.09 120.19 32.68 118.78 30.13 116.22L3.97 90.07C1.41 87.51 0 84.11 0 80.49C0 76.87 1.41 73.47 3.97 70.91L12.61 62.27L26.96 76.62L19.31 84.26C18.56 85.02 18.56 86.24 19.31 87L25.91 93.59L26.68 91.27C28.24 86.57 32.24 83.11 37.11 82.22L50.04 79.87L50.04 78.87C45.29 76.11 41.82 71.4 40.73 65.84C37.21 65.11 34.56 61.99 34.56 58.26L34.56 44.71C34.56 30.84 45.85 19.55 59.72 19.55C73.59 19.55 84.88 30.84 84.88 44.71L84.88 67.94C84.88 71.14 82.28 73.74 79.07 73.74L75.17 73.74C73.61 75.81 71.65 77.56 69.4 78.87L69.4 79.87L82.33 82.22C87.2 83.11 91.2 86.57 92.76 91.27L97.24 104.71L55.71 104.71ZM81.01 64.93C80.3 65.34 79.54 65.67 78.71 65.84C78.43 67.24 78.01 68.59 77.45 69.87L79.07 69.87C80.14 69.87 81.01 69.01 81.01 67.94L81.01 64.93ZM81.01 58.26C81.01 56.83 80.23 55.6 79.07 54.93L79.07 61.59C80.23 60.92 81.01 59.69 81.01 58.26ZM40.37 54.93C39.21 55.6 38.43 56.83 38.43 58.26C38.43 59.69 39.21 60.92 40.37 61.59L40.37 54.93ZM42.3 48.58C48.02 48.58 53.41 46.35 57.45 42.31L59.72 40.04L61.99 42.31C66.04 46.35 71.42 48.58 77.14 48.58L79.07 48.58L79.07 50.79C79.76 50.97 80.41 51.24 81.01 51.59L81.01 44.71C81.01 32.97 71.46 23.42 59.72 23.42C47.98 23.42 38.43 32.97 38.43 44.71L38.43 51.59C39.03 51.24 39.68 50.97 40.37 50.79L40.37 48.58L42.3 48.58ZM59.72 77.61C63.63 77.61 67.2 76.15 69.93 73.74L59.72 73.74L59.72 69.87L73.11 69.87C74.43 67.59 75.2 64.95 75.2 62.13L75.2 52.38C69.39 51.94 63.97 49.54 59.72 45.5C55.47 49.54 50.05 51.94 44.24 52.38L44.24 62.13C44.24 70.67 51.18 77.61 59.72 77.61ZM59.72 81.48C57.7 81.48 55.75 81.17 53.91 80.59L53.91 80.68L59.72 86.49L65.53 80.68L65.53 80.59C63.69 81.17 61.74 81.48 59.72 81.48ZM28.96 96.65L33.19 100.88C33.92 101.61 35.2 101.61 35.93 100.88L44.3 93.3L51.84 100.84L91.87 100.84L89.09 92.49C87.97 89.14 85.12 86.66 81.64 86.03L68.11 83.57L59.72 91.96L51.33 83.57L37.8 86.03C34.32 86.66 31.47 89.14 30.35 92.49L28.96 96.65ZM10.51 69.84L19.38 78.72L21.48 76.62L12.61 67.74L10.51 69.84ZM47.66 112.47L38.74 103.56L38.59 103.69C37.57 104.72 36.11 105.32 34.56 105.32C33.01 105.32 31.55 104.71 30.45 103.62L16.57 89.74C14.31 87.48 14.31 83.79 16.57 81.53L16.64 81.46L7.77 72.58L6.7 73.65C4.88 75.47 3.87 77.9 3.87 80.49C3.87 83.07 4.88 85.5 6.7 87.33L32.86 113.49C34.69 115.31 37.12 116.32 39.7 116.32C42.29 116.32 44.72 115.31 46.54 113.49L47.66 112.47ZM53.05 107.53L44.17 98.64L41.61 100.95L50.51 109.85L53.05 107.53Z"></path></g></g><g id="Group 254"><g id="Group 253"><path id="Path 487" fill-rule="evenodd" class="shp1" d="M119.72 6L119.72 21.49C119.72 24.69 117.11 27.29 113.91 27.29L108.66 27.29L89.98 38.97L91.99 27.29L86.82 27.29C83.61 27.29 81.01 24.69 81.01 21.49L81.01 6C81.01 2.8 83.61 0.2 86.82 0.2L113.91 0.2C117.11 0.2 119.72 2.8 119.72 6ZM115.85 6C115.85 4.94 114.98 4.07 113.91 4.07L86.82 4.07C85.75 4.07 84.88 4.94 84.88 6L84.88 21.49C84.88 22.55 85.75 23.42 86.82 23.42L96.58 23.42L95.26 31.1L107.55 23.42L113.91 23.42C114.98 23.42 115.85 22.55 115.85 21.49L115.85 6Z"></path></g></g><g id="Group 256"><g id="Group 255"><path id="Rectangle 174" class="shp1" d="M88.75 7.94L111.98 7.94L111.98 11.81L88.75 11.81L88.75 7.94Z"></path></g></g><g id="Group 258"><g id="Group 257"><path id="Rectangle 175" class="shp1" d="M88.75 15.68L104.23 15.68L104.23 19.55L88.75 19.55L88.75 15.68Z"></path></g></g><g id="Group 260"><g id="Group 259"><path id="Rectangle 176" class="shp1" d="M108.11 15.68L111.98 15.68L111.98 19.55L108.11 19.55L108.11 15.68Z"></path></g></g><g id="Group 262"><g id="Group 261"><path id="Path 488" class="shp0" d="M59.72 6C34.43 6 12.65 23.5 6.99 47.9L3.32 41.78L0 43.77L6.8 55.11L18.14 48.31L16.15 44.99L10.9 48.13C16.39 25.81 36.46 9.88 59.72 9.88C64.8 9.88 69.82 10.63 74.63 12.12L75.78 8.42C70.6 6.82 65.19 6 59.72 6Z"></path></g></g><g id="Group 264"><g id="Group 263"><path id="Path 489" class="shp0" d="M118.78 43.05L107.44 36.25L100.64 47.59L103.96 49.58L107.35 43.93C109.13 49.15 110.04 54.6 110.04 60.2C110.04 71.71 106.05 82.96 98.82 91.88L101.82 94.32C109.62 84.71 113.91 72.59 113.91 60.2C113.91 54.27 112.96 48.49 111.1 42.96L116.79 46.37L118.78 43.05Z"></path></g></g></g></g></g></g></svg> 