<?xml version="1.0" encoding="UTF-8"?> <svg xmlns="http://www.w3.org/2000/svg" viewBox="0 0 55 62" width="55" height="62"><defs><clipPath id="cp1"><path d="M-1445 -1080L475 -1080L475 4975L-1445 4975Z"></path></clipPath></defs><style> tspan { white-space:pre } .shp0 { fill: #a2abb8 } .shp1 { fill: #c8d2dc } .shp2 { fill: #e9edf1 } .shp3 { fill: #9dddf8 } .shp4 { fill: #339bda } .shp5 { fill: #ffffff } .shp6 { fill: #81a9c8 } .shp7 { fill: #4980ac } .shp8 { fill: #000000 } </style><g id="5 – 3" clip-path="url(#cp1)"><g id="001-personal-information"><g id="Group 18"><path id="Path 75" class="shp0" d="M40.26 57.46L35.47 57.46L29.97 46.41L48.13 50.19L48.13 53.83L40.26 57.46Z"></path><path id="Path 76" class="shp1" d="M40.26 57.46L46.32 57.46C47.32 57.46 48.13 56.64 48.13 55.64L48.13 53.83L40.26 53.83L40.26 57.46Z"></path><path id="Path 77" class="shp2" d="M44.5 6.56L51.77 6.56C52.77 6.56 53.58 7.38 53.58 8.38L53.58 48.38C53.58 49.38 52.77 50.19 51.77 50.19L20.89 50.19C19.89 50.19 19.07 49.38 19.07 48.38L19.07 35.42L44.5 6.56Z"></path><path id="Path 78" class="shp1" d="M20.89 6.56L44.5 6.56L44.5 40.16C44.5 41.16 43.68 41.98 42.69 41.98L37.84 41.98L37.84 50.19L34.21 50.19L19.07 8.38C19.07 7.38 19.89 6.56 20.89 6.56L20.89 6.56Z"></path><path id="Path 79" class="shp3" d="M2.72 12.01C1.73 12.01 0.91 12.83 0.91 13.83L0.91 60.14C0.91 60.66 1.34 61.09 1.86 61.09L34.47 61.09C34.99 61.09 35.42 60.66 35.42 60.14L35.42 58.67L2.72 12.01Z"></path><path id="Path 80" class="shp4" d="M9.38 12.01L2.72 12.01L2.72 57.81C2.72 58.28 3.11 58.67 3.59 58.67L35.42 58.67L35.42 39.66L9.38 12.01Z"></path><path id="Path 81" class="shp3" d="M33.6 12.01L9.38 12.01L9.38 37.84C9.38 38.84 10.2 39.66 11.2 39.66L35.42 39.66L35.42 13.83C35.42 12.83 34.6 12.01 33.6 12.01Z"></path><path id="Path 82" class="shp5" d="M40.87 37.24L13.62 37.24C12.62 37.24 11.81 36.42 11.81 35.42L11.81 2.72C11.81 1.73 12.62 0.91 13.62 0.91L40.87 0.91C41.87 0.91 42.69 1.73 42.69 2.72L42.69 35.42C42.69 36.42 41.87 37.24 40.87 37.24Z"></path><path id="Path 83" class="shp6" d="M31.18 23.01C30.07 23.82 24.42 23.82 23.31 23.01C21.39 25.61 15.44 24.2 15.44 30.45L15.44 33.6L39.05 33.6C39.05 33.6 39.05 33.03 39.05 30.45C39.05 24.2 33.1 25.61 31.18 23.01Z"></path><path id="Path 84" class="shp7" d="M31.18 23.01C30.81 22.51 30.58 21.86 30.58 20.98L23.91 20.98C23.91 21.86 23.69 22.51 23.31 23.01C24.42 23.82 25.78 24.29 27.25 24.29C28.72 24.29 30.07 23.82 31.18 23.01Z"></path><path id="Path 85" class="shp6" d="M33.94 11.44C33.94 7.74 30.94 4.75 27.25 4.75C23.55 4.75 20.56 7.74 20.56 11.44L20.56 15.18C20.56 18.88 23.55 21.87 27.25 21.87C30.94 21.87 33.94 18.88 33.94 15.18C33.94 14.37 33.94 12.25 33.94 11.44Z"></path></g><g id="Group 19"><path id="Path 86" fill-rule="evenodd" class="shp8" d="M33.6 62L2.72 62C1.22 62 0 60.78 0 59.28L0 13.83C0 12.33 1.22 11.1 2.72 11.1L7.94 11.1C8.45 11.1 8.85 11.51 8.85 12.01C8.85 12.51 8.45 12.92 7.94 12.92L2.72 12.92C2.22 12.92 1.82 13.33 1.82 13.83L1.82 59.28C1.82 59.78 2.22 60.18 2.72 60.18L33.6 60.18C34.1 60.18 34.51 59.78 34.51 59.28L34.51 38.14L13.62 38.14C12.12 38.14 10.9 36.92 10.9 35.42L10.9 2.72C10.9 1.22 12.12 0 13.62 0L40.87 0C42.37 0 43.59 1.22 43.59 2.72L43.59 11.81C43.59 12.31 43.19 12.71 42.69 12.71C42.18 12.71 41.78 12.31 41.78 11.81L41.78 2.72C41.78 2.22 41.37 1.82 40.87 1.82L13.62 1.82C13.12 1.82 12.71 2.22 12.71 2.72L12.71 35.42C12.71 35.92 13.12 36.33 13.62 36.33L40.87 36.33C41.37 36.33 41.78 35.92 41.78 35.42L41.78 15.44C41.78 14.94 42.18 14.53 42.69 14.53L48.13 14.53C48.64 14.53 49.04 14.94 49.04 15.44C49.04 15.94 48.64 16.35 48.13 16.35L43.59 16.35L43.59 19.98L48.13 19.98C48.64 19.98 49.04 20.39 49.04 20.89C49.04 21.39 48.64 21.8 48.13 21.8L43.59 21.8L43.59 25.43L48.13 25.43C48.64 25.43 49.04 25.84 49.04 26.34C49.04 26.84 48.64 27.25 48.13 27.25L43.59 27.25L43.59 30.88L48.13 30.88C48.64 30.88 49.04 31.29 49.04 31.79C49.04 32.29 48.64 32.7 48.13 32.7L43.59 32.7L43.59 35.42C43.59 35.74 43.54 36.04 43.44 36.33L48.13 36.33C48.64 36.33 49.04 36.73 49.04 37.24C49.04 37.74 48.64 38.14 48.13 38.14L36.33 38.14L36.33 41.78L48.13 41.78C48.64 41.78 49.04 42.18 49.04 42.69C49.04 43.19 48.64 43.59 48.13 43.59L36.33 43.59L36.33 49.29L51.77 49.29C52.27 49.29 52.68 48.88 52.68 48.38L52.68 8.38C52.68 7.88 52.27 7.47 51.77 7.47L46.32 7.47C45.82 7.47 45.41 7.06 45.41 6.56C45.41 6.06 45.82 5.66 46.32 5.66L51.77 5.66C53.27 5.66 54.49 6.88 54.49 8.38L54.49 48.38C54.49 49.88 53.27 51.1 51.77 51.1L36.33 51.1L36.33 56.55L46.32 56.55C46.82 56.55 47.23 56.14 47.23 55.64L47.23 53.83C47.23 53.32 47.63 52.92 48.13 52.92C48.64 52.92 49.04 53.32 49.04 53.83L49.04 55.64C49.04 57.14 47.82 58.37 46.32 58.37L36.33 58.37L36.33 59.28C36.33 60.78 35.11 62 33.6 62ZM15.44 34.51C14.94 34.51 14.53 34.1 14.53 33.6L14.53 30.45C14.53 25.78 17.62 24.71 19.87 23.93C21.73 23.29 22.78 22.86 22.97 21.46C20.97 20.09 19.65 17.79 19.65 15.18L19.65 11.44C19.65 7.25 23.06 3.84 27.25 3.84C31.44 3.84 34.84 7.25 34.84 11.44L34.84 15.18C34.84 17.79 33.53 20.09 31.52 21.46C31.71 22.86 32.76 23.29 34.62 23.93C36.88 24.71 39.96 25.78 39.96 30.45L39.96 33.6C39.96 34.1 39.55 34.51 39.05 34.51L15.44 34.51ZM16.35 32.7L38.14 32.7L38.14 30.45C38.14 27.08 36.24 26.41 34.03 25.65C32.4 25.09 30.43 24.41 29.85 22.32C29.03 22.62 28.16 22.78 27.25 22.78C26.33 22.78 25.46 22.62 24.65 22.32C24.06 24.41 22.09 25.09 20.46 25.65C18.26 26.42 16.35 27.08 16.35 30.45L16.35 32.7ZM21.46 11.44L21.46 15.18C21.46 18.37 24.06 20.96 27.25 20.96C30.43 20.96 33.03 18.37 33.03 15.18L33.03 11.44C33.03 8.25 30.43 5.66 27.25 5.66C24.06 5.66 21.46 8.25 21.46 11.44Z"></path></g></g></g></svg> 