<?xml version="1.0"?>
<svg xmlns="http://www.w3.org/2000/svg" xmlns:xlink="http://www.w3.org/1999/xlink" xmlns:svgjs="http://svgjs.com/svgjs" version="1.1" width="512" height="512" x="0" y="0" viewBox="0 0 511.335 511.335" style="enable-background:new 0 0 512 512" xml:space="preserve" class=""><g><g xmlns="http://www.w3.org/2000/svg"><path d="m264.465 17.598c-29.424 0-57.658 5.184-83.848 14.671l3.452 3.452c10.432 10.432 15.09 25.326 12.46 39.843l-7.876 43.446c22.688-11.874 48.478-18.603 75.812-18.603 90.462 0 164.059 73.597 164.059 164.059s-73.597 164.059-164.059 164.059-164.058-73.597-164.058-164.059c0-27.334 6.729-53.123 18.603-75.812l-43.443 7.875c-2.653.48-5.35.722-8.027.722-12.022 0-23.324-4.683-31.823-13.184l-3.449-3.449c-9.486 26.19-14.67 54.424-14.67 83.848 0 136.124 110.744 246.869 246.868 246.869s246.869-110.745 246.869-246.869-110.746-246.868-246.87-246.868z" fill="#ffffff" data-original="#000000" style="" class=""/><path d="m264.465 279.466c-3.839 0-7.678-1.465-10.606-4.393l-34.64-34.64c-3.825 7.174-6.002 15.353-6.002 24.033 0 28.258 22.99 51.248 51.248 51.248 28.259 0 51.249-22.99 51.249-51.248s-22.99-51.248-51.249-51.248c-8.681 0-16.86 2.177-24.033 6.002l34.64 34.64c5.858 5.857 5.858 15.355 0 21.213-2.929 2.928-6.768 4.393-10.607 4.393z" fill="#ffffff" data-original="#000000" style="" class=""/><path d="m159.706 180.919c-18.324 22.931-29.298 51.979-29.298 83.547 0 73.92 60.138 134.059 134.058 134.059s134.059-60.139 134.059-134.059-60.139-134.059-134.059-134.059c-31.567 0-60.616 10.975-83.547 29.299l37.717 37.717c13.055-8.953 28.838-14.205 45.83-14.205 44.801 0 81.249 36.447 81.249 81.248s-36.448 81.248-81.249 81.248-81.248-36.447-81.248-81.248c0-16.992 5.252-32.775 14.205-45.83z" fill="#ffffff" data-original="#000000" style="" class=""/><path d="m167.01 70.216c.877-4.84-.675-9.804-4.153-13.282l-52.539-52.54c-3.609-3.611-8.809-5.137-13.797-4.051s-9.082 4.635-10.865 9.419l-14.847 39.835 84.602 84.602z" fill="#ffffff" data-original="#000000" style="" class=""/><path d="m67.54 167.251c.889 0 1.784-.079 2.676-.24l63.982-11.6-84.602-84.602-39.834 14.847c-4.784 1.783-8.333 5.877-9.419 10.865-1.085 4.988.44 10.187 4.051 13.797l52.539 52.539c2.838 2.839 6.664 4.394 10.607 4.394z" fill="#ffffff" data-original="#000000" style="" class=""/></g></g></svg>
