<?xml version="1.0" encoding="UTF-8"?> <svg xmlns="http://www.w3.org/2000/svg" viewBox="0 0 98 98" width="98" height="98"><defs><clipPath id="cp1"><path d="M-1169 -2019L751 -2019L751 4036L-1169 4036Z"></path></clipPath></defs><style> tspan { white-space:pre } .shp0 { fill: #0f3677 } .shp1 { fill: #33baf1 } </style><g id="5 – 3" clip-path="url(#cp1)"><g id="Group 341"><g id="Group 339"><g id="001-referee"><g id="Group 267"><g id="Group 266"><path id="Path 509" class="shp0" d="M30.53 53.77C29.49 53.77 28.64 54.62 28.64 55.67C28.64 56.71 29.49 57.56 30.53 57.56C35.76 57.56 40.02 61.82 40.02 67.05C40.02 72.27 35.76 76.53 30.53 76.53C25.3 76.53 21.05 72.27 21.05 67.05C21.05 65.73 21.32 64.45 21.84 63.26C22.26 62.3 21.82 61.18 20.86 60.76C19.9 60.34 18.78 60.78 18.36 61.74C17.63 63.42 17.26 65.2 17.26 67.05C17.26 74.37 23.21 80.32 30.53 80.32C37.85 80.32 43.81 74.37 43.81 67.05C43.81 59.73 37.85 53.77 30.53 53.77Z"></path></g></g><g id="Group 269"><g id="Group 268"><path id="Path 510" fill-rule="evenodd" class="shp0" d="M96.54 13.96L67.81 42.69C67.07 43.43 65.87 43.43 65.13 42.69C64.39 41.95 64.39 40.75 65.13 40.01L92.52 12.62L84.67 4.77L62.1 18.4L62.32 18.62C64.38 20.67 64.38 24.01 62.32 26.07L55.39 33C54.4 33.99 53.08 34.54 51.67 34.54C50.26 34.54 48.94 33.99 47.95 33L43.58 28.63L30.01 36.52C30.18 36.52 30.36 36.51 30.53 36.51C32.32 36.51 34.11 36.67 35.86 36.97C36.89 37.16 37.58 38.14 37.4 39.17C37.22 40.2 36.23 40.89 35.2 40.71C33.67 40.44 32.1 40.31 30.53 40.31C26.39 40.31 22.47 41.25 18.97 42.94L15.4 45.01C8.39 49.84 3.79 57.92 3.79 67.05C3.79 81.79 15.79 93.79 30.53 93.79C45.28 93.79 57.27 81.79 57.27 67.05C57.27 59.35 53.95 52.02 48.17 46.94C47.38 46.25 47.3 45.05 47.99 44.27C48.68 43.48 49.88 43.4 50.67 44.09C57.28 49.89 61.07 58.26 61.07 67.05C61.07 83.88 47.37 97.58 30.53 97.58C24.2 97.58 18.32 95.64 13.43 92.33C12.73 95.33 10.03 97.58 6.81 97.58C3.05 97.58 0 94.53 0 90.77C0 87.55 2.24 84.85 5.25 84.15C1.94 79.26 0 73.38 0 67.05C0 56.73 5.15 47.59 13 42.06C13.1 41.98 13.19 41.91 13.3 41.84L13.37 41.8C14.58 40.98 15.85 40.24 17.17 39.6L42.93 24.62C43.68 24.18 44.62 24.31 45.23 24.91L50.63 30.31C50.91 30.59 51.28 30.75 51.67 30.75C52.06 30.75 52.43 30.59 52.71 30.31L59.64 23.38C60.22 22.81 60.22 21.88 59.64 21.3L57.73 19.39C57.58 19.24 57.45 19.07 57.36 18.88C56.94 18.05 57.19 17.04 57.94 16.49C57.99 16.46 58.05 16.42 58.1 16.39L83.98 0.75C84.73 0.3 85.69 0.42 86.3 1.03L96.54 11.28C97.29 12.02 97.29 13.22 96.54 13.96ZM6.81 87.76C5.15 87.76 3.79 89.11 3.79 90.77C3.79 92.43 5.15 93.79 6.81 93.79C8.47 93.79 9.82 92.43 9.82 90.77C9.82 89.11 8.47 87.76 6.81 87.76Z"></path></g></g><g id="Group 271"><g id="Group 270"><path id="Path 511" class="shp1" d="M47.8 12.7L39.65 4.54C38.91 3.8 37.71 3.8 36.97 4.54C36.23 5.28 36.23 6.48 36.97 7.23L45.12 15.38C45.49 15.75 45.98 15.94 46.46 15.94C46.95 15.94 47.43 15.75 47.8 15.38C48.55 14.64 48.55 13.44 47.8 12.7Z"></path></g></g><g id="Group 273"><g id="Group 272"><path id="Path 512" class="shp1" d="M53.26 0.48C52.21 0.48 51.36 1.33 51.36 2.38L51.36 11.09C51.36 12.14 52.21 12.99 53.26 12.99C54.31 12.99 55.16 12.14 55.16 11.09L55.16 2.38C55.16 1.33 54.31 0.48 53.26 0.48Z"></path></g></g><g id="Group 275"><g id="Group 274"><path id="Path 513" class="shp1" d="M43.74 18.72L35.02 18.72C33.97 18.72 33.13 19.57 33.13 20.61C33.13 21.66 33.97 22.51 35.02 22.51L43.74 22.51C44.79 22.51 45.64 21.66 45.64 20.61C45.64 19.57 44.79 18.72 43.74 18.72Z"></path></g></g><g id="Group 277"><g id="Group 276"><path id="Path 514" class="shp0" d="M61.64 44.2C60.59 44.2 59.74 45.05 59.74 46.1L59.74 46.12C59.74 47.17 60.59 48.02 61.64 48.02C62.68 48.02 63.53 47.17 63.53 46.12L63.53 46.1C63.53 45.05 62.68 44.2 61.64 44.2Z"></path></g></g><g id="Group 279"><g id="Group 278"><path id="Path 515" class="shp0" d="M25.59 56.22C25.24 55.86 24.75 55.66 24.25 55.66C23.75 55.66 23.26 55.86 22.91 56.22C22.56 56.57 22.35 57.06 22.35 57.56C22.35 58.06 22.56 58.55 22.91 58.9C23.26 59.25 23.75 59.45 24.25 59.45C24.75 59.45 25.24 59.25 25.59 58.9C25.94 58.55 26.15 58.06 26.15 57.56C26.15 57.06 25.94 56.57 25.59 56.22Z"></path></g></g></g></g></g></g></svg> 