<?xml version="1.0"?>
<svg xmlns="http://www.w3.org/2000/svg" xmlns:xlink="http://www.w3.org/1999/xlink" xmlns:svgjs="http://svgjs.com/svgjs" version="1.1" width="512" height="512" x="0" y="0" viewBox="0 0 511.941 511.941" style="enable-background:new 0 0 512 512" xml:space="preserve"><g>
<g xmlns="http://www.w3.org/2000/svg">
	<path d="M508.727,49.747L480.233,3.563c-2.171-3.519-6.779-4.616-10.302-2.456L255.609,132.469   c-3.493,2.142-4.615,6.846-2.463,10.333l12.041,19.516l-37.753,23.289l-12.131-19.662c-2.17-3.517-6.778-4.616-10.302-2.456   c-26.425,16.196-52.891,32.371-79.246,48.635c-36.828,22.718-62.604,58.418-72.579,100.521c-8.091,34.152-5,69.201,8.581,100.875   c-1.115-0.355-2.244-0.682-3.395-0.955c-24.523-5.806-49.206,9.415-55.016,33.938c-2.815,11.881-0.834,24.146,5.577,34.536   c22.511,36.487,80.13,22.934,84.39-19.529c31.056,32.732,74.016,50.43,117.766,50.43c29.003,0,58.349-7.772,84.793-24.086   c36.828-22.719,62.604-58.418,72.579-100.521c9.977-42.104,2.957-85.572-19.763-122.397c-3.802-6.163-10.784-14.975-15.312-20.512   l78.273-83.286c6.625-7.05-4.304-17.323-10.93-10.273l-82.814,88.117c-2.615,2.782-2.723,7.085-0.25,9.994   c0.13,0.152,13.056,15.389,18.267,23.836c20.616,33.415,26.984,72.858,17.933,111.063c-9.052,38.205-32.44,70.6-65.858,91.215   c-68.986,42.555-159.734,21.058-202.293-47.923c-20.616-33.415-26.985-72.858-17.933-111.063   c9.052-38.205,32.441-70.599,65.859-91.214c24.229-14.938,48.546-29.817,72.833-44.703l12.142,19.68   c2.175,3.524,6.795,4.622,10.32,2.444l50.52-31.164c3.48-2.146,4.592-6.842,2.445-10.321l-12.029-19.497L471.394,17.803   l21.551,34.932l-56.511,60.13c-6.625,7.05,4.305,17.325,10.93,10.273l60.445-64.316C510.13,56.351,510.507,52.631,508.727,49.747z    M77.708,464.12c-3.904,16.477-20.492,26.701-36.963,22.802c-7.982-1.891-14.75-6.776-19.057-13.758   c-4.307-6.98-5.637-15.221-3.747-23.201c3.342-14.105,15.977-23.632,29.883-23.632c2.336,0,4.71,0.269,7.08,0.83   c7.982,1.891,14.75,6.776,19.057,13.758C78.268,447.899,79.598,456.139,77.708,464.12z" fill="#01012f" data-original="#000000" style=""/>
	<path d="M135.316,311.981c-3.875-1.455-8.202,0.503-9.66,4.381c-9.95,26.468-7.151,55.434,7.679,79.472   c25.873,41.936,82.636,55.427,124.629,29.523c41.981-25.897,55.459-82.588,29.526-124.621   c-26.222-42.497-82.129-55.742-124.629-29.523c-8.233,5.08-0.359,17.842,7.875,12.766c35.463-21.876,82.11-10.824,103.988,24.635   c21.641,35.074,10.384,82.373-24.636,103.979c-35.462,21.875-82.111,10.824-103.988-24.635   c-12.374-20.056-14.708-44.228-6.404-66.315C141.155,317.763,139.193,313.439,135.316,311.981z" fill="#01012f" data-original="#000000" style=""/>
	<path d="M119.115,132.367l67.823,16.066c9.228,2.185,12.907-12.356,3.458-14.596l-67.823-16.066   C113.159,115.538,109.702,130.136,119.115,132.367z" fill="#01012f" data-original="#000000" style=""/>
	<path d="M201.157,119.768c5.01,8.122,17.857,0.376,12.766-7.877l-43.032-69.747c-5.08-8.232-17.845-0.357-12.766,7.877   L201.157,119.768z" fill="#01012f" data-original="#000000" style=""/>
	<path d="M235.953,118.197c3.912,0.926,8.098-1.647,9.027-5.568l16.068-67.818c2.23-9.414-12.365-12.871-14.596-3.459   l-16.068,67.818C229.429,113.201,231.923,117.242,235.953,118.197z" fill="#01012f" data-original="#000000" style=""/>
</g>















</g></svg>
